<svg id="Flat" xmlns="http://www.w3.org/2000/svg" viewBox="0 0 512 512"><circle cx="312" cy="104" r="72" style="fill:#a3d4f7"/><path d="M312,24a80,80,0,1,0,80,80A80.091,80.091,0,0,0,312,24Zm63.482,72H359.654a91.152,91.152,0,0,0-20.449-49.913A64.145,64.145,0,0,1,375.482,96ZM304,96H280.42c2.346-22.362,14.163-38.119,23.58-47.349Zm0,16v47.347c-9.42-9.233-21.235-24.989-23.58-47.347Zm16,47.348V112h23.579C341.234,134.357,329.42,150.115,320,159.348ZM320,96V48.653c9.42,9.233,21.235,24.989,23.58,47.347ZM284.8,46.087A91.152,91.152,0,0,0,264.346,96H248.518A64.145,64.145,0,0,1,284.8,46.087ZM248.518,112h15.828A91.152,91.152,0,0,0,284.8,161.913,64.145,64.145,0,0,1,248.518,112Zm90.687,49.913A91.152,91.152,0,0,0,359.654,112h15.828A64.145,64.145,0,0,1,339.205,161.913Z" style="fill:#2d85cc"/><circle cx="200" cy="104" r="72" style="fill:#ffd33a"/><path d="M200,184a80,80,0,1,1,80-80A80.091,80.091,0,0,1,200,184Zm0-144a64,64,0,1,0,64,64A64.072,64.072,0,0,0,200,40Z" style="fill:#ffb632"/><path d="M200,96a8,8,0,0,1,0-16h16a8,8,0,0,0,0-16h-8a8,8,0,0,0-16,0v1.376A24,24,0,0,0,200,112a8,8,0,0,1,0,16H184a8,8,0,0,0,0,16h8a8,8,0,0,0,16,0v-1.376A24,24,0,0,0,200,96Z" style="fill:#ffb632"/><path d="M248,296,348,396a16.971,16.971,0,0,1,0,24h0a16.971,16.971,0,0,1-24,0l8,8a16.971,16.971,0,0,1,0,24h0a16.971,16.971,0,0,1-24,0l-8-8a16.971,16.971,0,0,1,0,24h0a16.971,16.971,0,0,1-24,0l-8.14-8.14a17.168,17.168,0,0,1,0,24.28h0a17.167,17.167,0,0,1-23.993.278L72,320l38.107-130.864L248,224Z" style="fill:#f0c6a4"/><path d="M440,320l-87.53,83.91A16.851,16.851,0,0,0,348,396L242.55,290.725,214.11,304.94a17.869,17.869,0,0,1-21.95-27.14L248,224l152-32Z" style="fill:#e0b999"/><path d="M242.806,298.6a8,8,0,0,1-3.584-15.157l53.2-26.6a8,8,0,1,1,7.156,14.31l-53.2,26.6A7.963,7.963,0,0,1,242.806,298.6Z" style="fill:#d1ad8f"/><path d="M267.86,467.86a7.978,7.978,0,0,1-5.657-2.343l-67.86-67.86a8,8,0,0,1,11.314-11.314L273.518,454.2a8,8,0,0,1-5.658,13.656Z" style="fill:#d1ad8f"/><path d="M324,428a7.974,7.974,0,0,1-5.657-2.343l-68-68a8,8,0,0,1,11.314-11.314l68,68A8,8,0,0,1,324,428Z" style="fill:#d1ad8f"/><path d="M300,452a7.974,7.974,0,0,1-5.657-2.343l-68-68a8,8,0,0,1,11.314-11.314l68,68A8,8,0,0,1,300,452Z" style="fill:#d1ad8f"/><polygon points="72 344 24 327.304 24 152 120 184 72 344" style="fill:#2d85cc"/><polygon points="67.44 166.48 24 327.3 24 152 67.44 166.48" style="fill:#2978b8"/><polygon points="440 344 488 327.304 488 152 392 184 440 344" style="fill:#9aa3a8"/><polygon points="488 152 488 327.3 444.56 166.48 488 152" style="fill:#6a7073"/></svg>