<svg width="21" height="17" viewBox="0 0 21 17" fill="none" xmlns="http://www.w3.org/2000/svg">
<path d="M0.721829 0.375401C0.605307 0.541811 0.559662 0.747694 0.59494 0.947759C0.630216 1.14782 0.743524 1.32568 0.909934 1.4422L17.7999 13.2687L6.82004 15.2057C6.71818 15.2199 6.62023 15.2546 6.53204 15.3075C6.44385 15.3605 6.36723 15.4307 6.30676 15.5139C6.24628 15.5971 6.20318 15.6916 6.18003 15.7919C6.15688 15.8921 6.15416 15.9959 6.17202 16.0972C6.18988 16.1985 6.22797 16.2952 6.284 16.3815C6.34003 16.4677 6.41286 16.5418 6.49815 16.5993C6.58344 16.6568 6.67944 16.6966 6.78042 16.7162C6.8814 16.7358 6.98529 16.7348 7.0859 16.7134L19.8875 14.4561C20.0874 14.4208 20.2651 14.3075 20.3815 14.1412C20.4979 13.975 20.5436 13.7693 20.5084 13.5693L18.2512 0.767743C18.2098 0.573624 18.0948 0.403129 17.9302 0.292176C17.7656 0.181224 17.5644 0.138476 17.369 0.17294C17.1735 0.207404 16.9991 0.316388 16.8824 0.476933C16.7657 0.637478 16.7159 0.837048 16.7434 1.0336L18.6786 12.0138L1.78863 0.187294C1.62222 0.0707723 1.41633 0.0251295 1.21627 0.0604068C1.01621 0.0956822 0.838351 0.208989 0.721829 0.375401Z" fill="#FF5E62"/>
</svg>
