<svg id="Flat" xmlns="http://www.w3.org/2000/svg" viewBox="0 0 512 512"><rect x="248" y="56" width="240" height="288" style="fill:#e9eef2"/><path d="M360,96H280a8,8,0,0,1,0-16h80a8,8,0,0,1,0,16Z" style="fill:#d0d2d4"/><path d="M360,128H272a8,8,0,0,1,0-16h88a8,8,0,0,1,0,16Z" style="fill:#d0d2d4"/><path d="M360,160H264a8,8,0,0,1,0-16h96a8,8,0,0,1,0,16Z" style="fill:#d0d2d4"/><path d="M456,488a15.951,15.951,0,0,1-11.313-4.687l-168-168a16,16,0,0,1,22.627-22.627l168,168A16,16,0,0,1,456,488Z" style="fill:#d13330"/><polygon points="24 408 56 304 152 272 152 208 232 208 232 272 328 304 360 408 24 408" style="fill:#e9eef2"/><polygon points="168 312 120 264 136 240 248 240 264 264 216 312 168 312" style="fill:#d0d2d4"/><polygon points="152 256 192 280 232 256 232 200 152 200 152 256" style="fill:#e0b999"/><path d="M264,136c0,39.765-32.235,96-72,96s-72-56.235-72-96a72,72,0,0,1,144,0Z" style="fill:#f0c6a4"/><polygon points="176 328 160 384 160 408 224 408 224 384 208 328 176 328" style="fill:#2d85cc"/><path d="M280,88l-16,48L248,96H136l-16,40L104,88V80a32,32,0,0,1,32-32h80c21.732,0,48.633-8.633,64-24h0Z" style="fill:#95573a"/><path d="M88,408V352a8,8,0,0,1,16,0v56Z" style="fill:#d0d2d4"/><path d="M280,408V352a8,8,0,0,1,16,0v56Z" style="fill:#d0d2d4"/><circle cx="168" cy="136" r="8" style="fill:#95573a"/><circle cx="216" cy="136" r="8" style="fill:#95573a"/><path d="M456,192H312a8,8,0,0,1,0-16H456a8,8,0,0,1,0,16Z" style="fill:#d0d2d4"/><path d="M456,232H312a8,8,0,0,1,0-16H456a8,8,0,0,1,0,16Z" style="fill:#d0d2d4"/><path d="M456,272H312a8,8,0,0,1,0-16H456a8,8,0,0,1,0,16Z" style="fill:#d0d2d4"/><path d="M456,312H312a8,8,0,0,1,0-16H456a8,8,0,0,1,0,16Z" style="fill:#d0d2d4"/><path d="M192,191.294a51.2,51.2,0,0,1-28.438-8.638,8,8,0,1,1,8.876-13.312,35.174,35.174,0,0,0,39.124,0,8,8,0,0,1,8.876,13.312A51.2,51.2,0,0,1,192,191.294Z" style="fill:#95573a"/><polygon points="192 280 168 312 176 328 208 328 216 312 192 280" style="fill:#266fab"/><circle cx="304" cy="304" r="120" style="fill:#eb423f"/><circle cx="304" cy="304" r="88" style="fill:#e9eef2"/><path d="M304,368a64.072,64.072,0,0,1-64-64,8,8,0,0,1,16,0,48.054,48.054,0,0,0,48,48,8,8,0,0,1,0,16Z" style="fill:#d0d2d4"/><path d="M296,328a7.976,7.976,0,0,1-5.657-2.343l-16-16a8,8,0,0,1,11.314-11.314L296,308.687l42.343-42.344a8,8,0,0,1,11.314,11.314l-48,48A7.976,7.976,0,0,1,296,328Z" style="fill:#3dc285"/><rect x="392" y="88" width="64" height="64" style="fill:#d0d2d4"/></svg>