<svg width="25" height="25" viewBox="0 0 25 25" fill="none" xmlns="http://www.w3.org/2000/svg">
<path d="M24.0515 21.2665C23.895 21.9681 23.507 22.5967 22.9499 23.051C22.3413 23.6682 21.6161 24.1584 20.8165 24.493C20.0168 24.8275 19.1587 24.9999 18.2919 25H17.8869C16.0675 24.9012 14.2861 24.4407 12.6469 23.6454H12.6344C12.2543 23.4685 11.8618 23.2915 11.4817 23.0759C9.56817 22.003 7.81302 20.6693 6.26664 19.1132C4.25981 17.2282 2.61298 14.9936 1.40671 12.5187C0.765634 11.1623 0.337742 9.71511 0.138144 8.22821C-0.155369 6.67179 0.0211915 5.06323 0.645322 3.60754C1.03934 2.9508 1.52058 2.35051 2.07589 1.82307C2.32575 1.54051 2.63124 1.31255 2.97324 1.15345C3.31524 0.994348 3.68639 0.907535 4.06347 0.898438C4.47358 0.943759 4.8706 1.07009 5.23148 1.27011C5.59236 1.47012 5.90991 1.73983 6.16571 2.06357C6.73519 2.6829 7.43054 3.3284 8.00127 3.92406L8.78633 4.69666C9.2474 5.10539 9.53277 5.67612 9.58386 6.29171C9.58386 6.85621 9.37575 7.40077 9.00067 7.82321C8.75775 8.11866 8.49988 8.40149 8.22806 8.67059L7.9751 8.93602C7.82805 9.07309 7.7159 9.24256 7.64612 9.43073C7.58381 9.61599 7.55889 9.80582 7.57135 10.0002C7.77198 10.5373 8.08725 11.0258 8.49349 11.4308C9.12777 12.2906 9.76081 13.0383 10.4063 13.8483C11.5739 15.2037 12.9595 16.3548 14.5061 17.254C14.6644 17.3699 14.8463 17.4471 15.0394 17.4808C15.2064 17.4932 15.3759 17.4683 15.5329 17.406C15.9753 17.1456 16.3678 16.8116 16.6968 16.4178C17.1392 15.876 17.7743 15.5268 18.4688 15.4433C19.1371 15.4525 19.7746 15.7258 20.2421 16.2035C20.495 16.4178 20.7729 16.7094 21.0396 16.9885L21.4184 17.3798L21.8109 17.7599L22.4826 18.4428C22.883 18.7983 23.2585 19.1784 23.6091 19.583C23.9605 20.069 24.1188 20.6709 24.0515 21.2665ZM19.5081 12.5947C19.2571 12.5921 19.017 12.4912 18.8395 12.3137C18.662 12.1362 18.5611 11.8961 18.5585 11.6451C18.5598 10.9283 18.4196 10.2183 18.1459 9.5558C17.8722 8.8933 17.4704 8.29136 16.9636 7.7845C16.4567 7.27765 15.8548 6.87584 15.1923 6.60214C14.5298 6.32843 13.8198 6.18822 13.1029 6.18953C12.8511 6.18953 12.6096 6.08949 12.4315 5.91141C12.2534 5.73334 12.1534 5.49181 12.1534 5.23997C12.1534 4.98814 12.2534 4.74661 12.4315 4.56854C12.6096 4.39046 12.8511 4.29042 13.1029 4.29042C14.0692 4.28894 15.0262 4.47817 15.9192 4.84725C16.8122 5.21634 17.6236 5.75803 18.3068 6.44127C18.99 7.12451 19.5317 7.93587 19.9008 8.82885C20.2699 9.72183 20.4591 10.6789 20.4576 11.6451C20.458 11.7699 20.4336 11.8935 20.386 12.0089C20.3384 12.1242 20.2685 12.229 20.1803 12.3173C20.092 12.4055 19.9872 12.4755 19.8719 12.5231C19.7565 12.5707 19.6329 12.595 19.5081 12.5947Z" fill="white"/>
<path d="M23.8952 12.1502C23.6444 12.1476 23.4046 12.0469 23.2271 11.8697C23.0497 11.6925 22.9487 11.4528 22.9457 11.202C22.9477 9.98081 22.7089 8.77123 22.2429 7.64245C21.7768 6.51368 21.0928 5.48787 20.23 4.62372C19.3671 3.75958 18.3423 3.07406 17.2142 2.60639C16.0861 2.13872 14.8769 1.89809 13.6557 1.89825C13.5282 1.90287 13.4011 1.88175 13.2819 1.83615C13.1628 1.79055 13.0541 1.7214 12.9622 1.63284C12.8704 1.54428 12.7974 1.43812 12.7475 1.3207C12.6976 1.20328 12.6719 1.07702 12.6719 0.949438C12.6719 0.821861 12.6976 0.695593 12.7475 0.578174C12.7974 0.460756 12.8704 0.354596 12.9622 0.266034C13.0541 0.177472 13.1628 0.108326 13.2819 0.0627247C13.4011 0.0171233 13.5282 -0.00399784 13.6557 0.000623022C15.1261 0.000622111 16.5821 0.290444 17.9404 0.853519C19.2987 1.41659 20.5327 2.24188 21.5719 3.28218C22.611 4.32249 23.4349 5.55742 23.9965 6.91636C24.5581 8.2753 24.8463 9.7316 24.8446 11.202C24.8449 11.3268 24.8206 11.4504 24.773 11.5657C24.7254 11.6811 24.6555 11.7859 24.5673 11.8741C24.479 11.9623 24.3742 12.0322 24.2589 12.0798C24.1436 12.1274 24.02 12.1505 23.8952 12.1502Z" fill="white"/>
</svg>
