<svg width="60" height="59" viewBox="0 0 60 59" fill="none" xmlns="http://www.w3.org/2000/svg">
<g filter="url(#filter0_d_109_325)">
<circle cx="30.3242" cy="29.5" r="23.5" fill="white"/>
</g>
<path d="M45.4188 21.2061C44.3544 21.6899 43.2071 22.0079 42.0182 22.1599C43.2347 21.4273 44.1747 20.2661 44.6171 18.8699C43.4697 19.5611 42.1979 20.0449 40.8571 20.3214C39.765 19.1326 38.2306 18.4414 36.4888 18.4414C33.2403 18.4414 30.5862 21.0955 30.5862 24.3717C30.5862 24.8417 30.6415 25.2979 30.7382 25.7264C25.8171 25.4776 21.435 23.1138 18.5182 19.5335C18.0068 20.4043 17.7165 21.4273 17.7165 22.5055C17.7165 24.5652 18.7532 26.3899 20.3568 27.4267C19.3753 27.4267 18.4629 27.1502 17.6612 26.7355V26.777C17.6612 29.6523 19.7071 32.0576 22.4165 32.5967C21.5467 32.8358 20.6333 32.8689 19.7485 32.6935C20.124 33.8719 20.8593 34.903 21.8511 35.6419C22.8429 36.3808 24.0414 36.7903 25.2779 36.8129C23.1818 38.4724 20.5835 39.3694 17.91 39.3564C17.44 39.3564 16.97 39.3288 16.5 39.2735C19.1265 40.9599 22.2506 41.9414 25.5959 41.9414C36.4888 41.9414 42.4744 32.9008 42.4744 25.0629C42.4744 24.8002 42.4744 24.5514 42.4606 24.2888C43.6218 23.4593 44.6171 22.4088 45.4188 21.2061Z" fill="#FF5E62"/>
<defs>
<filter id="filter0_d_109_325" x="0.824219" y="0" width="59" height="59" filterUnits="userSpaceOnUse" color-interpolation-filters="sRGB">
<feFlood flood-opacity="0" result="BackgroundImageFix"/>
<feColorMatrix in="SourceAlpha" type="matrix" values="0 0 0 0 0 0 0 0 0 0 0 0 0 0 0 0 0 0 127 0" result="hardAlpha"/>
<feMorphology radius="2" operator="dilate" in="SourceAlpha" result="effect1_dropShadow_109_325"/>
<feOffset/>
<feGaussianBlur stdDeviation="2"/>
<feComposite in2="hardAlpha" operator="out"/>
<feColorMatrix type="matrix" values="0 0 0 0 0 0 0 0 0 0 0 0 0 0 0 0 0 0 0.22 0"/>
<feBlend mode="normal" in2="BackgroundImageFix" result="effect1_dropShadow_109_325"/>
<feBlend mode="normal" in="SourceGraphic" in2="effect1_dropShadow_109_325" result="shape"/>
</filter>
</defs>
</svg>
