<svg width="81" height="35" viewBox="0 0 81 35" fill="none" xmlns="http://www.w3.org/2000/svg">
<path d="M14.9464 4.0649C13.55 1.58479 11.0284 0.0656036 8.19986 0.00220071C8.0672 -0.00073357 7.93337 -0.00073357 7.79955 0.00220071C4.97156 0.0655956 2.44998 1.58478 1.0536 4.0649C-0.363327 6.5826 -0.350415 9.57576 1.08822 12.0717L7.32293 22.8898L4.78139 27.2994C4.11284 28.4599 4.10286 29.8541 4.75557 31.0287C5.39535 32.1798 6.55637 32.8936 7.86177 32.9376C7.90755 32.9394 7.95393 32.94 8.0003 32.94C8.04667 32.94 8.09245 32.9394 8.13882 32.9376C9.44423 32.8936 10.6052 32.1798 11.2444 31.0287C11.8971 29.8541 11.8872 28.4599 11.2186 27.2994L8.67765 22.8898L14.9118 12.0717C16.3504 9.57576 16.3633 6.58201 14.9464 4.0649ZM10.2014 27.8858C10.6628 28.6859 10.6686 29.6475 10.2184 30.4587C9.78054 31.2465 8.98874 31.7343 8.09949 31.7642C8.03316 31.7666 7.96625 31.7666 7.90109 31.7642C7.01184 31.7343 6.21944 31.2465 5.78216 30.4587C5.33137 29.6475 5.33782 28.6859 5.79859 27.8858L8.00029 24.0656L10.2014 27.8858ZM13.8946 11.4859L8.00029 21.7146L2.10543 11.4859C0.87574 9.35212 0.865179 6.79334 2.07667 4.64077C3.26762 2.52518 5.41707 1.23023 7.82596 1.17564C7.88407 1.17447 7.94218 1.17388 8.00029 1.17388C8.0584 1.17388 8.11651 1.17447 8.17403 1.17564C10.5835 1.23023 12.7324 2.52518 13.9233 4.64077C15.1348 6.79334 15.1242 9.35213 13.8946 11.4859Z" fill="url(#paint0_linear_181_782)"/>
<path d="M10.5475 7.46388C10.3849 7.16744 10.1354 6.93147 9.79793 6.75654C9.46043 6.58161 9.02959 6.49414 8.50485 6.49414H6.39648V13.0546H7.1836V10.4488H8.50485C9.03546 10.4488 9.46805 10.3614 9.80262 10.1864C10.1366 10.0115 10.3849 9.77436 10.5475 9.4744C10.7101 9.17444 10.7911 8.84042 10.7911 8.47178C10.7911 8.09668 10.7101 7.76091 10.5475 7.46388ZM9.65236 9.42274C9.43108 9.66341 9.04486 9.78375 8.49546 9.78375H7.1836V7.14983H8.49546C9.04486 7.14983 9.43108 7.26723 9.65236 7.50145C9.87424 7.73566 9.98517 8.0591 9.98517 8.47177C9.98517 8.86507 9.87424 9.18207 9.65236 9.42274Z" fill="url(#paint1_linear_181_782)"/>
<path d="M9.45707 28.7367V28.9357H8.84545C8.4516 28.975 8.13875 29.2879 8.09943 29.6812V30.2934H7.90045V29.6812C7.86112 29.2879 7.54827 28.975 7.15442 28.9357H6.5428V28.7367H7.15442C7.54827 28.6973 7.86112 28.3845 7.90045 27.9912V27.3789H8.09943V27.9912C8.13875 28.3845 8.45161 28.6973 8.84545 28.7367H9.45707Z" fill="url(#paint2_linear_181_782)"/>
<path d="M73.3855 12.0245H78.0731V8.86626H81V6.76941H40.6182C39.9964 5.92713 39.346 5.15833 38.671 4.46301C37.9689 3.73911 37.2301 3.11999 36.4531 2.60836C35.6761 2.09537 34.8556 1.69941 33.9889 1.4191C33.1221 1.14015 32.2009 1 31.2253 1C30.4115 1 29.7108 1.09526 29.1243 1.2844C28.5365 1.47352 28.0548 1.73343 27.6793 2.06271C27.3037 2.392 27.0261 2.77709 26.8451 3.21795C26.6655 3.66018 26.5757 4.12827 26.5757 4.62629C26.5757 5.28351 26.7485 5.99924 27.0969 6.76941H25V8.86626H27.0601V20.6731H29.4917V8.86626H32.9493V13.0123C32.9493 13.7648 33.0282 14.4044 33.1874 14.9323C33.3452 15.4603 33.548 15.9011 33.7929 16.2508C34.0378 16.6019 34.3127 16.8795 34.6175 17.0809C34.9223 17.2823 35.2203 17.4347 35.5129 17.5381C35.8041 17.6401 36.0748 17.7041 36.3225 17.7286C36.5715 17.7531 36.7647 17.7653 36.9008 17.7653C37.6954 17.7653 38.4601 17.5326 39.1936 17.0673L39.2303 17.0768V20.6636H41.6632V8.86626H50.4235V11.1019H49.0342C48.3702 11.1019 47.7606 11.1931 47.2081 11.3727C46.6543 11.5537 46.1794 11.8204 45.7821 12.1741C45.3848 12.5279 45.0759 12.9715 44.8555 13.5022C44.6337 14.0329 44.5234 14.6506 44.5234 15.3528C44.5234 16.1039 44.6514 16.8087 44.9058 17.4673C45.1603 18.1259 45.529 18.7028 46.0107 19.1968C46.4924 19.6907 47.0761 20.0799 47.7619 20.3656C48.4491 20.6514 49.2233 20.7942 50.0874 20.7942C50.746 20.7942 51.3814 20.7085 51.9937 20.5384C52.6047 20.367 53.1939 20.1044 53.7599 19.7506V17.1326C53.4864 17.3054 53.1871 17.4769 52.8646 17.6442C52.5421 17.813 52.2087 17.9613 51.8672 18.0919C51.5256 18.2225 51.1827 18.3287 50.8385 18.4089C50.4929 18.4892 50.1622 18.53 49.8452 18.53C49.4288 18.53 49.0464 18.4606 48.6995 18.3205C48.3511 18.1803 48.0518 17.9803 47.8 17.719C47.5483 17.4578 47.351 17.1407 47.2081 16.7693C47.0652 16.3964 46.9931 15.9801 46.9931 15.5201C46.9931 15.1038 47.0516 14.7473 47.1659 14.4533C47.2802 14.1581 47.4489 13.9172 47.6694 13.7308C47.8898 13.5444 48.1565 13.407 48.4708 13.3199C48.7838 13.2341 49.1376 13.1906 49.5281 13.1906H52.8551V12.0245H55.801C56.1793 12.0245 56.4609 12.1088 56.6433 12.2762C56.827 12.4449 56.9181 12.6626 56.9181 12.9293C56.9181 13.0967 56.88 13.2709 56.8025 13.4505C56.7249 13.6315 56.6038 13.8016 56.4392 13.9635C56.2745 14.1254 56.0595 14.2669 55.7955 14.388C55.5316 14.5091 55.2132 14.5908 54.8403 14.6343C54.9342 15.2494 55.1002 15.848 55.3397 16.4291C55.5778 17.0087 55.899 17.5244 56.3031 17.9748C56.7072 18.4252 57.1971 18.7858 57.7713 19.0566C58.3455 19.3274 59.0123 19.4621 59.7702 19.4621C60.0872 19.4621 60.3716 19.4376 60.6233 19.3872C60.8751 19.3383 61.1037 19.2743 61.3078 19.1967C61.5133 19.1192 61.701 19.028 61.8725 18.926C62.0426 18.8239 62.2031 18.7164 62.3515 18.6048L62.38 18.6144V20.2322C62.2317 20.2567 62.0834 20.2867 61.9364 20.3234C61.5051 20.4323 61.12 20.5983 60.7812 20.8228C60.4424 21.046 60.1716 21.3276 59.9661 21.6664C59.7607 22.0039 59.6586 22.3999 59.6586 22.8543C59.6586 23.2707 59.7457 23.6381 59.9199 23.9579C60.094 24.2776 60.3281 24.5484 60.6234 24.7689C60.9186 24.9893 61.2615 25.1553 61.6534 25.2682C62.0439 25.3798 62.4576 25.4356 62.8917 25.4356C63.5503 25.4356 64.1503 25.3118 64.6905 25.0628L64.3653 23.5442C63.9612 23.717 63.5788 23.8041 63.2183 23.8041C62.8522 23.8041 62.5569 23.7238 62.3338 23.5619C62.1093 23.4013 61.9977 23.1809 61.9977 22.9006C61.9977 22.6026 62.1297 22.3672 62.3937 22.1971C62.6576 22.0257 63.0318 21.9413 63.5163 21.9413C64.0007 21.9413 64.4375 22.0297 64.8266 22.2066C65.2144 22.3835 65.575 22.6339 65.907 22.9564C66.239 23.2789 66.552 23.668 66.8432 24.1212C67.1357 24.5743 67.4242 25.0777 67.71 25.6315L69.6952 24.6709C69.5455 24.4355 69.3673 24.1606 69.1591 23.8463C68.9509 23.5333 68.7087 23.2095 68.4325 22.8775C68.1563 22.5455 67.8419 22.2161 67.4909 21.8896C67.1398 21.563 66.7507 21.2732 66.322 21.0187C65.8934 20.7629 65.424 20.5574 64.9151 20.3982C64.881 20.3874 64.847 20.3778 64.8116 20.3683V8.86624H75.6415V10.0119H72.3881C72.0533 10.0119 71.7445 10.046 71.4614 10.114C71.1784 10.1834 70.9348 10.2991 70.7294 10.4637C70.5253 10.6284 70.3661 10.8461 70.2545 11.1169C70.1429 11.3863 70.0871 11.7265 70.0871 12.1374C70.0871 12.5157 70.1416 12.913 70.2504 13.3294C70.3579 13.7458 70.5266 14.1295 70.7525 14.4805C70.9797 14.8316 71.2655 15.1228 71.6111 15.3528C71.9554 15.5814 72.3663 15.697 72.8453 15.697H75.4919C75.7028 15.697 75.8865 15.7106 76.0416 15.7392C76.1967 15.7664 76.326 15.8208 76.428 15.9025C76.5315 15.9828 76.6063 16.0943 76.6526 16.2372C76.6988 16.3801 76.722 16.5638 76.722 16.7869C76.722 17.0985 76.673 17.3802 76.5736 17.6347C76.4729 17.8905 76.3287 18.1082 76.1396 18.2878C75.9504 18.4674 75.7137 18.6076 75.432 18.7069C75.149 18.8062 74.8237 18.8566 74.4577 18.8566C73.8617 18.8566 73.2943 18.7314 72.7568 18.4837C72.2194 18.2347 71.7268 17.9014 71.2791 17.4809C70.8328 17.0618 70.4382 16.5828 70.0966 16.0413C69.7537 15.5011 69.4816 14.9364 69.2761 14.3458L67.1793 15.184C67.446 16.0413 67.8202 16.8318 68.3019 17.5557C68.7836 18.2796 69.3415 18.9028 69.9755 19.424C70.6083 19.9465 71.3063 20.3547 72.067 20.65C72.8276 20.9452 73.625 21.0922 74.4577 21.0922C75.2469 21.0922 75.9355 20.9752 76.526 20.7384C77.1165 20.503 77.6078 20.1846 77.9983 19.7832C78.3902 19.3831 78.6841 18.9178 78.88 18.3898C79.0746 17.8619 79.1726 17.3026 79.1726 16.7121C79.1726 16.2971 79.1263 15.9038 79.0338 15.5337C78.9399 15.1636 78.7861 14.8425 78.5725 14.569C78.3575 14.2955 78.0745 14.0805 77.7234 13.9213C77.3723 13.7634 76.9397 13.6845 76.4239 13.6845H73.8141C73.5596 13.6845 73.3515 13.6464 73.1895 13.5716C73.029 13.4981 72.9011 13.4069 72.8085 13.3021C72.7146 13.196 72.6507 13.0817 72.6167 12.9565C72.5827 12.8327 72.5663 12.7184 72.5663 12.6123C72.5663 12.4068 72.6235 12.2585 72.7378 12.1646C72.8534 12.0721 73.0684 12.0245 73.3855 12.0245ZM29.3434 6.76941C29.1815 6.47142 29.0617 6.18703 28.9842 5.91624C28.9066 5.64547 28.8671 5.38012 28.8671 5.11887C28.8671 4.82088 28.9175 4.55009 29.0168 4.3038C29.1162 4.05887 29.2713 3.8466 29.4822 3.66563C29.6945 3.48601 29.9612 3.34585 30.2836 3.24652C30.6075 3.14719 30.9885 3.09685 31.4307 3.09685C31.9342 3.09685 32.4281 3.15944 32.9125 3.28326C33.3969 3.40845 33.8623 3.57444 34.31 3.78264C34.7577 3.99082 35.1849 4.22623 35.5918 4.49021C35.9986 4.7542 36.3783 5.02633 36.7334 5.30528C37.0872 5.58559 37.4083 5.86181 37.6981 6.13531C37.9431 6.36663 38.1621 6.5789 38.3554 6.76941H29.3434ZM39.2303 14.1404C38.9568 14.5758 38.6533 14.9092 38.3173 15.1419C37.9825 15.3759 37.5661 15.4916 37.0681 15.4916C36.8382 15.4916 36.6218 15.4589 36.4163 15.3936C36.2109 15.3283 36.0326 15.2099 35.8802 15.0357C35.7278 14.8615 35.6067 14.6234 35.5169 14.3227C35.4271 14.0206 35.3822 13.6342 35.3822 13.162V8.86626H39.2303V14.1404ZM61.3037 16.7774C60.8846 17.0509 60.3662 17.1884 59.7512 17.1884C59.5212 17.1884 59.2967 17.1652 59.0763 17.1176C58.8558 17.0713 58.6503 16.9924 58.4612 16.8808C58.2721 16.7693 58.1006 16.6182 57.9482 16.4291C57.7958 16.2386 57.6734 15.9977 57.5808 15.7065C58.2013 15.4262 58.6626 15.0507 58.9647 14.5785C59.2654 14.1064 59.4164 13.5539 59.4164 12.9198C59.4164 12.5225 59.3593 12.1728 59.2436 11.8707C59.1293 11.57 58.9783 11.3115 58.7919 11.0978C58.6054 10.8828 58.3904 10.7059 58.1482 10.5671C57.906 10.427 57.6598 10.3154 57.408 10.231C57.1563 10.1467 56.9073 10.0895 56.6624 10.0582C56.4174 10.0283 56.1984 10.0119 56.0051 10.0119H52.8551V8.86624H62.3801V15.5473C62.0821 16.0943 61.7228 16.5039 61.3037 16.7774Z" fill="#161616"/>
<path d="M39.0918 3.78722C39.0918 3.60078 39.1244 3.42697 39.1897 3.2654C39.2549 3.10381 39.3467 2.96402 39.4646 2.84603C39.5827 2.72802 39.7241 2.63488 39.8886 2.56645C40.0533 2.49814 40.2351 2.46387 40.4338 2.46387C40.6265 2.46387 40.8066 2.49816 40.9743 2.56645C41.142 2.63488 41.2865 2.72949 41.4077 2.85067C41.5288 2.97173 41.6252 3.11472 41.6966 3.27936C41.7681 3.444 41.8037 3.62272 41.8037 3.81514C41.8037 4.00782 41.7711 4.18495 41.7059 4.34639C41.6407 4.50798 41.5475 4.64617 41.4263 4.76111C41.3052 4.87605 41.1623 4.96602 40.9976 5.03126C40.8331 5.0965 40.6544 5.12919 40.4618 5.12919C40.2693 5.12919 40.089 5.0965 39.9213 5.03126C39.7535 4.96602 39.6091 4.87286 39.4879 4.7518C39.3667 4.63062 39.2705 4.48936 39.199 4.32778C39.1276 4.16619 39.0918 3.98615 39.0918 3.78722Z" fill="#161616"/>
<path d="M34.5162 30.1494V29.957H33.3686L33.3596 29.9391C33.2992 29.8251 33.2455 29.7266 33.1963 29.6416C33.1493 29.5588 33.1046 29.4873 33.0643 29.4269C33.0241 29.3687 32.986 29.3195 32.9525 29.2814C32.9167 29.2434 32.8809 29.2121 32.8429 29.192C32.8048 29.1696 32.7668 29.1562 32.7265 29.1472C32.684 29.1383 32.6393 29.1338 32.5878 29.1338H32.3485V29.3463H32.6035C32.6415 29.3463 32.6796 29.3508 32.7154 29.3597C32.7512 29.3687 32.7869 29.3866 32.825 29.4157C32.8608 29.4447 32.901 29.4872 32.9435 29.5432C32.9838 29.5991 33.0308 29.6752 33.08 29.7714L33.1807 29.957H29.3956V30.6841C29.3643 30.7109 29.3352 30.7355 29.3061 30.7512C29.277 30.7691 29.2479 30.7825 29.2211 30.7937C29.192 30.8026 29.1629 30.8093 29.1361 30.8116C29.1093 30.8161 29.0846 30.8183 29.06 30.8183C29.0354 30.8183 29.0108 30.8161 28.9817 30.8138C28.9527 30.8116 28.9258 30.8071 28.9012 30.8026C28.861 30.7668 28.8117 30.7378 28.7536 30.7131V30.7087C28.9035 30.6125 28.9773 30.4872 28.9773 30.3306C28.9773 30.2725 28.9683 30.221 28.946 30.1718C28.9236 30.1226 28.8923 30.0801 28.8542 30.0443C28.8162 30.0085 28.7692 29.9816 28.7155 29.9615C28.6618 29.9414 28.6037 29.9324 28.5411 29.9324C28.4739 29.9324 28.4113 29.9392 28.3486 29.957C28.2838 29.9749 28.2189 29.9995 28.1518 30.0331L28.2256 30.2121C28.2614 30.1964 28.2927 30.183 28.3196 30.1718C28.3464 30.1628 28.3733 30.1539 28.3979 30.1472C28.4225 30.1405 28.4449 30.136 28.4672 30.1338C28.4896 30.1293 28.512 30.1293 28.5343 30.1293C28.5701 30.1293 28.6014 30.1338 28.6305 30.1427C28.6573 30.1517 28.6842 30.1651 28.7043 30.183C28.7245 30.2009 28.7424 30.2232 28.7535 30.2523C28.767 30.2792 28.7714 30.3105 28.7714 30.344C28.7714 30.3821 28.7647 30.4201 28.7469 30.4537C28.7312 30.4894 28.7066 30.5208 28.673 30.5454C28.6417 30.5722 28.6014 30.5924 28.5545 30.608C28.5075 30.6237 28.4516 30.6326 28.3912 30.6326H28.3822C28.3755 30.6326 28.3688 30.6304 28.3621 30.6304V30.8295C28.3777 30.8272 28.3912 30.8272 28.4068 30.825H28.4516C28.5746 30.825 28.6686 30.8496 28.7334 30.901C28.7983 30.9503 28.8319 31.0218 28.8319 31.1113C28.8319 31.1516 28.8251 31.1919 28.814 31.2299C28.805 31.2679 28.7871 31.2992 28.7625 31.3283C28.7379 31.3552 28.7066 31.3775 28.6663 31.3954C28.626 31.4111 28.5791 31.42 28.5231 31.42C28.465 31.42 28.4113 31.4088 28.3643 31.3865C28.3173 31.3663 28.2748 31.3373 28.2346 31.3015C28.1965 31.2657 28.163 31.2254 28.1316 31.1784C28.1026 31.1315 28.0757 31.0845 28.0511 31.0353C28.0265 30.986 28.0064 30.9368 27.9885 30.8876C27.9706 30.8384 27.9549 30.7937 27.9437 30.7534L27.7715 30.8317C27.7804 30.8675 27.7938 30.91 27.8117 30.9637C27.8297 31.0174 27.8543 31.0733 27.8833 31.1314C27.9102 31.1896 27.946 31.2478 27.9862 31.3059C28.0265 31.3641 28.0735 31.4155 28.1272 31.4625C28.1809 31.5095 28.2413 31.5475 28.3084 31.5766C28.3755 31.6057 28.4493 31.6191 28.5321 31.6191C28.6104 31.6191 28.6797 31.6079 28.7424 31.5833C28.805 31.5587 28.8587 31.5251 28.9034 31.4804C28.9459 31.4357 28.9817 31.3842 29.0041 31.3238C29.0287 31.2634 29.0399 31.1986 29.0399 31.127C29.0399 31.0755 29.0332 31.0308 29.0197 30.995V30.9883C29.0376 30.9905 29.0533 30.9927 29.069 30.995H29.1137C29.1607 30.995 29.2054 30.9905 29.2502 30.9793C29.2927 30.9704 29.3397 30.948 29.3889 30.9144L29.3956 30.9167V31.9122H29.6103V30.1494H30.0913V31.9122H30.3083V30.1494H30.7825V30.8809C30.7825 30.9771 30.796 31.0576 30.8206 31.127C30.8452 31.1941 30.881 31.2522 30.9257 31.297C30.9682 31.3417 31.0219 31.3753 31.0845 31.3976C31.1472 31.4178 31.2143 31.4289 31.2903 31.4289C31.3619 31.4289 31.4335 31.4178 31.5051 31.3954C31.5789 31.373 31.6438 31.3372 31.702 31.2836L31.7064 31.2858V31.9122H31.9234V30.1494H33.1941V30.6303L33.1873 30.6326C33.1695 30.6147 33.1471 30.599 33.1202 30.5789C33.0934 30.5588 33.0643 30.5409 33.0308 30.523C32.9972 30.5073 32.9592 30.4916 32.9189 30.4805C32.8786 30.4693 32.8339 30.4626 32.7869 30.4626C32.7198 30.4626 32.6572 30.476 32.599 30.5006C32.5409 30.5274 32.4894 30.5632 32.4469 30.608C32.4044 30.655 32.3708 30.7086 32.344 30.7735C32.3194 30.8362 32.3082 30.9055 32.3082 30.9816C32.3082 31.0599 32.3216 31.1337 32.3485 31.203C32.3753 31.2724 32.4133 31.3328 32.4603 31.3842C32.5073 31.4334 32.5632 31.4737 32.6303 31.505C32.6952 31.5341 32.7646 31.5498 32.8428 31.5498C32.8876 31.5498 32.9301 31.543 32.9681 31.5341C33.0039 31.5229 33.0375 31.5095 33.0666 31.4961C33.0934 31.4804 33.118 31.4648 33.1381 31.4491C33.1583 31.4334 33.1762 31.4178 33.1873 31.4066L33.1941 31.4111V31.9122H33.4088V31.0263C33.4155 30.9927 33.4334 30.9547 33.4558 30.9144C33.4804 30.8742 33.5095 30.8361 33.5453 30.8003C33.5788 30.7668 33.6191 30.7355 33.6616 30.7131C33.7041 30.6885 33.7488 30.6773 33.7936 30.6773C33.8294 30.6773 33.8607 30.684 33.8898 30.6997C33.9189 30.7153 33.9457 30.7355 33.9658 30.7601C33.986 30.7847 34.0039 30.816 34.0151 30.8496C34.0262 30.8831 34.033 30.9189 34.033 30.957C34.033 30.9972 34.0262 31.0375 34.0128 31.0733C33.9994 31.1091 33.9815 31.1448 33.9614 31.1762C33.939 31.2075 33.9166 31.2366 33.8898 31.2634C33.8629 31.2903 33.8361 31.3126 33.807 31.335C33.7802 31.3551 33.7533 31.373 33.7287 31.3887C33.7041 31.4044 33.6817 31.4178 33.6638 31.4267L33.7802 31.6281C33.8339 31.599 33.8876 31.5632 33.9435 31.5207C33.9994 31.4782 34.0486 31.4289 34.0911 31.3753C34.1359 31.3193 34.1717 31.2589 34.1985 31.1896C34.2276 31.1225 34.241 31.0486 34.241 30.9681C34.241 30.8965 34.2298 30.8317 34.2075 30.7713C34.1851 30.7086 34.1538 30.6572 34.1157 30.6102C34.0755 30.5655 34.0285 30.5297 33.9748 30.505C33.9211 30.4782 33.863 30.467 33.8003 30.467C33.722 30.467 33.6482 30.4849 33.5811 30.523C33.5162 30.5587 33.4603 30.608 33.4155 30.6706L33.4088 30.6661V30.1494L34.5162 30.1494ZM31.7064 30.9928C31.6595 31.0621 31.5991 31.118 31.5252 31.1606C31.4537 31.2031 31.3731 31.2232 31.2814 31.2232C31.2277 31.2232 31.1807 31.2165 31.1449 31.2008C31.1092 31.1829 31.0778 31.1606 31.0555 31.1293C31.0331 31.0979 31.0174 31.0621 31.0085 31.0174C30.9995 30.9749 30.9951 30.9257 30.9951 30.8698V30.1494H31.7064V30.9928ZM33.1963 30.9302C33.1963 31.004 33.1851 31.0666 33.1605 31.1203C33.1382 31.1718 33.1068 31.2165 33.071 31.2501C33.0352 31.2836 32.995 31.3105 32.9525 31.3261C32.9077 31.3418 32.8675 31.3507 32.8272 31.3507C32.7825 31.3507 32.74 31.3395 32.6997 31.3194C32.6617 31.2993 32.6304 31.2724 32.6013 31.2389C32.5744 31.2053 32.5521 31.1673 32.5386 31.127C32.523 31.0845 32.5163 31.0443 32.5163 31.0018C32.5163 30.9637 32.523 30.9235 32.5342 30.8832C32.5476 30.8452 32.5677 30.8094 32.5923 30.7758C32.6169 30.7445 32.6483 30.7176 32.6863 30.6975C32.7243 30.6774 32.7691 30.6662 32.8183 30.6662C32.8563 30.6662 32.8921 30.6729 32.9279 30.6841C32.9637 30.6953 32.9972 30.7087 33.0308 30.7266C33.0621 30.7445 33.0934 30.7669 33.1225 30.7915C33.1516 30.8138 33.1762 30.8407 33.1963 30.8653L33.1963 30.9302Z" fill="#161616"/>
<path d="M42.249 29.957H35.1621V30.1494H36.5424C36.567 30.1852 36.5871 30.2188 36.6028 30.2523C36.6184 30.2837 36.6296 30.3172 36.6408 30.3463C36.6497 30.3776 36.6565 30.4045 36.6609 30.4313C36.6632 30.4581 36.6654 30.4805 36.6654 30.5029C36.6654 30.5342 36.6609 30.5655 36.6475 30.5968C36.6363 30.6281 36.6184 30.6572 36.5938 30.6841C36.567 30.7109 36.5334 30.7333 36.4931 30.7512C36.4909 30.7512 36.4887 30.7534 36.4864 30.7534C36.4842 30.749 36.482 30.7445 36.4797 30.74C36.4462 30.6863 36.4014 30.6371 36.3455 30.5923C36.2918 30.5476 36.2292 30.5096 36.1598 30.4805C36.0882 30.4514 36.0122 30.438 35.9316 30.438C35.8511 30.438 35.7773 30.4514 35.7102 30.4805C35.6431 30.5096 35.5849 30.5476 35.5357 30.5968C35.4865 30.6483 35.4484 30.7064 35.4194 30.7735C35.3925 30.8407 35.3791 30.9145 35.3791 30.9928C35.3791 31.0688 35.3925 31.1427 35.4194 31.2165C35.4462 31.2881 35.4865 31.3507 35.5379 31.4089C35.5871 31.4648 35.6498 31.5095 35.7258 31.5431C35.7997 31.5789 35.8847 31.5946 35.9786 31.5946C36.0659 31.5946 36.1464 31.5789 36.2157 31.5476C36.2873 31.5185 36.3455 31.4715 36.3947 31.4134C36.4395 31.3597 36.4752 31.2948 36.4999 31.2187C36.5043 31.2299 36.5111 31.2389 36.52 31.25C36.5692 31.3127 36.6296 31.3619 36.7012 31.3977C36.7728 31.4357 36.86 31.4536 36.9607 31.4536C37.0122 31.4536 37.0614 31.4492 37.1061 31.4402C37.1531 31.4312 37.1956 31.4178 37.2359 31.4044C37.2761 31.3887 37.3141 31.3731 37.3455 31.3552C37.379 31.3351 37.4059 31.3172 37.4305 31.297L37.435 31.2993V31.9122H37.6497V30.1494H38.1329V31.9122H38.3477V30.1494H38.8241V30.8809C38.8241 30.9771 38.8353 31.0577 38.8599 31.127C38.8868 31.1941 38.9203 31.2523 38.9651 31.297C39.0098 31.3418 39.0635 31.3753 39.1262 31.3977C39.1865 31.4178 39.2559 31.429 39.332 31.429C39.4013 31.429 39.4729 31.4178 39.5467 31.3955C39.6183 31.3731 39.6832 31.3373 39.7436 31.2836L39.748 31.2858V31.9122H39.965V30.1494H40.446V31.9122H40.6607V30.1494H41.5175C41.5377 30.183 41.5578 30.2188 41.5779 30.2546C41.5981 30.2904 41.6182 30.3262 41.6339 30.3642C41.6495 30.4022 41.6652 30.4425 41.6741 30.4805C41.6853 30.5208 41.6898 30.561 41.6898 30.6035C41.6898 30.6371 41.6853 30.6729 41.6741 30.7087C41.6652 30.7467 41.6495 30.778 41.6294 30.8094C41.6092 30.8384 41.5847 30.8631 41.5533 30.8832C41.5243 30.9033 41.4907 30.9123 41.4527 30.9123C41.4012 30.9123 41.3542 30.8921 41.314 30.8541C41.2759 30.8138 41.2401 30.7624 41.2088 30.693L41.0276 30.7892C41.0522 30.8407 41.0813 30.8966 41.1126 30.9592C41.1462 31.0196 41.1842 31.0845 41.2267 31.1516C41.2692 31.2188 41.3162 31.2859 41.3676 31.3574C41.4191 31.4268 41.4728 31.4961 41.5332 31.5655C41.5913 31.6348 41.6562 31.6997 41.7233 31.7646C41.7882 31.8294 41.8598 31.8876 41.9336 31.9435L42.0746 31.7825C41.947 31.684 41.833 31.5811 41.7345 31.4715C41.6361 31.3641 41.5488 31.2478 41.4706 31.1248L41.4728 31.1181C41.5421 31.1158 41.6048 31.1002 41.6585 31.0711C41.7122 31.042 41.7569 31.0062 41.7927 30.9615C41.8285 30.9167 41.8576 30.8653 41.8755 30.8071C41.8956 30.7512 41.9045 30.6908 41.9045 30.6282C41.9045 30.5476 41.8911 30.4649 41.862 30.3866C41.8352 30.306 41.7994 30.2277 41.7547 30.1494H42.249V29.957ZM36.3142 31.118C36.2896 31.1852 36.2583 31.2389 36.218 31.2791C36.1777 31.3194 36.1352 31.3485 36.086 31.3664C36.039 31.3843 35.9898 31.3954 35.9406 31.3954C35.8824 31.3954 35.831 31.3842 35.7862 31.3619C35.7437 31.3395 35.7057 31.3104 35.6766 31.2724C35.6475 31.2366 35.6252 31.1964 35.6095 31.1516C35.5961 31.1069 35.5894 31.0621 35.5894 31.0174C35.5894 30.9749 35.5961 30.9324 35.6073 30.8854C35.6207 30.8407 35.6431 30.8004 35.6722 30.7624C35.7012 30.7266 35.737 30.6953 35.7818 30.6706C35.8287 30.6483 35.8824 30.6349 35.9473 30.6349C36.0301 30.6349 36.1039 30.6572 36.171 30.6975C36.2403 30.74 36.3008 30.8004 36.3589 30.8787C36.3544 30.9727 36.341 31.0532 36.3142 31.118ZM37.4349 31.0263C37.4103 31.0621 37.379 31.0934 37.3455 31.1203C37.3119 31.1494 37.2739 31.1718 37.2336 31.1919C37.1956 31.212 37.1531 31.2277 37.1083 31.2366C37.0636 31.2478 37.0188 31.2523 36.9741 31.2523C36.9271 31.2523 36.8824 31.2478 36.8421 31.2344C36.8019 31.2232 36.7638 31.2031 36.7303 31.1762C36.6967 31.1494 36.6676 31.1158 36.643 31.0733C36.6184 31.033 36.6005 30.9816 36.5871 30.9234C36.6341 30.9077 36.6766 30.8854 36.7124 30.8563C36.7482 30.8272 36.7795 30.7959 36.8041 30.7601C36.8287 30.7221 36.8466 30.6841 36.8578 30.6415C36.869 30.5991 36.8757 30.5566 36.8757 30.5118C36.8757 30.4514 36.8667 30.3888 36.8489 30.3261C36.831 30.2613 36.8064 30.2031 36.775 30.1494H37.435L37.4349 31.0263ZM39.748 30.9928C39.6988 31.0621 39.6384 31.118 39.5668 31.1605C39.4952 31.2031 39.4125 31.2232 39.323 31.2232C39.2671 31.2232 39.2223 31.2165 39.1865 31.2008C39.1485 31.1829 39.1194 31.1606 39.0971 31.1293C39.0747 31.0979 39.059 31.0621 39.0501 31.0174C39.0411 30.9749 39.0367 30.9257 39.0367 30.8698V30.1494H39.748V30.9928Z" fill="#161616"/>
<path d="M45.6802 29.957L45.6712 29.9391C45.6109 29.8251 45.5572 29.7266 45.5102 29.6416C45.461 29.5588 45.4185 29.4873 45.3782 29.4269C45.3379 29.3687 45.2999 29.3195 45.2641 29.2814C45.2283 29.2434 45.1925 29.2121 45.1545 29.192C45.1187 29.1696 45.0785 29.1562 45.0382 29.1472C44.9979 29.1383 44.9509 29.1338 44.8995 29.1338H44.6601V29.3463H44.9152C44.9532 29.3463 44.9912 29.3508 45.027 29.3597C45.0628 29.3687 45.1008 29.3866 45.1366 29.4157C45.1746 29.4447 45.2127 29.4872 45.2552 29.5432C45.2954 29.5991 45.3424 29.6752 45.3939 29.7714L45.4923 29.957H42.8906V30.1494H43.9756V30.6304L43.9711 30.6326C43.9532 30.6147 43.9309 30.5991 43.904 30.5789C43.8772 30.5588 43.8458 30.5409 43.8123 30.523C43.7787 30.5073 43.7429 30.4917 43.7027 30.4805C43.6602 30.4693 43.6177 30.4626 43.5707 30.4626C43.5036 30.4626 43.441 30.476 43.3828 30.5006C43.3246 30.5275 43.2732 30.5633 43.2307 30.608C43.1859 30.655 43.1524 30.7087 43.1278 30.7736C43.1032 30.8362 43.0897 30.9055 43.0897 30.9816C43.0897 31.0599 43.1032 31.1337 43.13 31.2031C43.1568 31.2724 43.1949 31.3328 43.2418 31.3843C43.2911 31.4335 43.347 31.4737 43.4119 31.5051C43.4767 31.5341 43.5483 31.5498 43.6244 31.5498C43.6713 31.5498 43.7139 31.5431 43.7497 31.5341C43.7877 31.5229 43.819 31.5095 43.8481 31.4961C43.8772 31.4804 43.9018 31.4648 43.9219 31.4491C43.942 31.4335 43.9577 31.4178 43.9711 31.4066L43.9756 31.4111V31.9122H44.1903V31.0263C44.1993 30.9928 44.215 30.9547 44.2396 30.9145C44.2642 30.8742 44.2933 30.8362 44.3268 30.8004C44.3626 30.7668 44.4006 30.7355 44.4431 30.7131C44.4879 30.6885 44.5304 30.6774 44.5774 30.6774C44.6109 30.6774 44.6445 30.6841 44.6736 30.6997C44.7026 30.7154 44.7272 30.7355 44.7474 30.7601C44.7697 30.7847 44.7854 30.8161 44.7966 30.8496C44.81 30.8832 44.8145 30.919 44.8145 30.957C44.8145 30.9973 44.8078 31.0375 44.7943 31.0733C44.7832 31.1091 44.7653 31.1449 44.7429 31.1762C44.7227 31.2075 44.6982 31.2366 44.6713 31.2635C44.6445 31.2903 44.6176 31.3127 44.5908 31.3351C44.5617 31.3552 44.5371 31.3731 44.5102 31.3887C44.4856 31.4044 44.4633 31.4178 44.4476 31.4268L44.5639 31.6281C44.6176 31.599 44.6713 31.5632 44.725 31.5207C44.7809 31.4782 44.8301 31.429 44.8749 31.3753C44.9174 31.3194 44.9532 31.259 44.9823 31.1896C45.0091 31.1225 45.0225 31.0487 45.0225 30.9682C45.0225 30.8966 45.0113 30.8317 44.9912 30.7713C44.9689 30.7087 44.9375 30.6572 44.8973 30.6102C44.8592 30.5655 44.8123 30.5297 44.7586 30.5051C44.7049 30.4782 44.6467 30.4671 44.5841 30.4671C44.5035 30.4671 44.4297 30.485 44.3648 30.523C44.2977 30.5588 44.2418 30.608 44.1971 30.6706L44.1903 30.6662V30.1494H45.5057V31.9122H45.7205V30.1494H45.9956V29.957L45.6802 29.957ZM43.9778 30.9302C43.9778 31.004 43.9666 31.0666 43.9443 31.1203C43.9197 31.1718 43.8906 31.2165 43.8548 31.2501C43.8168 31.2836 43.7787 31.3105 43.734 31.3261C43.6915 31.3418 43.649 31.3507 43.611 31.3507C43.564 31.3507 43.5215 31.3395 43.4834 31.3194C43.4454 31.2993 43.4119 31.2724 43.385 31.2389C43.3559 31.2053 43.3358 31.1673 43.3201 31.127C43.3067 31.0845 43.2978 31.0443 43.2978 31.0018C43.2978 30.9637 43.3045 30.9235 43.3179 30.8832C43.3313 30.8452 43.3492 30.8094 43.3738 30.7758C43.4007 30.7445 43.432 30.7176 43.47 30.6975C43.5081 30.6774 43.5506 30.6662 43.602 30.6662C43.6378 30.6662 43.6736 30.6729 43.7094 30.6841C43.7452 30.6953 43.781 30.7087 43.8123 30.7266C43.8459 30.7445 43.8772 30.7669 43.904 30.7915C43.9331 30.8138 43.9577 30.8407 43.9778 30.8653L43.9778 30.9302Z" fill="#161616"/>
<path d="M51.3056 29.957V30.1494H51.0304V31.9122H50.8157V30.1494H50.2251V31.1672C50.2251 31.1806 50.2229 31.1985 50.2229 31.2164C50.2206 31.2343 50.2161 31.2522 50.2094 31.2701C50.2027 31.2858 50.1938 31.3014 50.1826 31.3126C50.1692 31.3238 50.1513 31.3305 50.1311 31.3305C50.1065 31.3305 50.0819 31.3216 50.0528 31.3082C50.0238 31.2925 49.9947 31.2724 49.9656 31.2478C49.9365 31.2209 49.9074 31.1941 49.8784 31.1627C49.8515 31.1314 49.8269 31.0979 49.8045 31.0643C49.7844 31.033 49.7665 30.9994 49.7531 30.9681C49.7396 30.9368 49.7329 30.91 49.7329 30.8854C49.7329 30.863 49.7396 30.8451 49.7486 30.8317C49.7598 30.8182 49.7754 30.8093 49.7956 30.8026C49.8157 30.7959 49.8403 30.7914 49.8672 30.7892C49.8962 30.7869 49.9276 30.7869 49.9611 30.7869H50.0081V30.1494H49.3571V31.9122H49.1424V30.1494H48.6592V31.9122H48.4444V30.9167L48.4399 30.9144C48.3907 30.948 48.3437 30.9704 48.299 30.9793C48.2565 30.9905 48.2095 30.995 48.1648 30.995H48.1178C48.1021 30.9927 48.0865 30.9905 48.0708 30.9883L48.0686 30.995C48.082 31.0308 48.0887 31.0755 48.0887 31.127C48.0887 31.1986 48.0775 31.2634 48.0552 31.3238C48.0306 31.3842 47.997 31.4357 47.9523 31.4804C47.9075 31.5251 47.8561 31.5587 47.7934 31.5833C47.7308 31.6079 47.6592 31.6191 47.5832 31.6191C47.5004 31.6191 47.4243 31.6057 47.3572 31.5766C47.2901 31.5475 47.2297 31.5095 47.176 31.4625C47.1223 31.4155 47.0753 31.3641 47.0351 31.3059C46.9948 31.2478 46.9613 31.1896 46.9322 31.1314C46.9031 31.0733 46.8807 31.0174 46.8606 30.9637C46.8427 30.91 46.8293 30.8675 46.8203 30.8317L46.9926 30.7534C47.006 30.7937 47.0216 30.8384 47.0373 30.8876C47.0552 30.9368 47.0776 30.986 47.0999 31.0352C47.1246 31.0845 47.1514 31.1314 47.1827 31.1784C47.2118 31.2254 47.2476 31.2657 47.2856 31.3015C47.3237 31.3373 47.3684 31.3663 47.4154 31.3865C47.4624 31.4088 47.5138 31.42 47.572 31.42C47.6279 31.42 47.6771 31.4111 47.7151 31.3954C47.7554 31.3775 47.7867 31.3552 47.8113 31.3283C47.8359 31.2992 47.8538 31.2679 47.865 31.2299C47.8762 31.1919 47.8807 31.1516 47.8807 31.1113C47.8807 31.0218 47.8494 30.9503 47.7845 30.901C47.7174 30.8496 47.6234 30.825 47.5004 30.825H47.4557C47.4422 30.8272 47.4266 30.8272 47.4109 30.8295V30.6304C47.4199 30.6304 47.4243 30.6326 47.4311 30.6326H47.44C47.5026 30.6326 47.5563 30.6237 47.6033 30.608C47.6525 30.5923 47.6906 30.5722 47.7241 30.5454C47.7554 30.5208 47.78 30.4894 47.7979 30.4536C47.8136 30.4201 47.8225 30.3821 47.8225 30.344C47.8225 30.3105 47.8158 30.2792 47.8046 30.2523C47.7912 30.2232 47.7755 30.2009 47.7532 30.183C47.733 30.1651 47.7084 30.1517 47.6794 30.1427C47.6503 30.1338 47.6189 30.1293 47.5854 30.1293C47.5608 30.1293 47.5384 30.1293 47.5161 30.1338C47.4959 30.136 47.4713 30.1405 47.4467 30.1472C47.4221 30.1539 47.3975 30.1629 47.3684 30.1718C47.3416 30.183 47.3102 30.1964 47.2767 30.212L47.2006 30.0331C47.27 29.9995 47.3349 29.9749 47.3975 29.957C47.4601 29.9391 47.525 29.9324 47.5899 29.9324C47.6525 29.9324 47.7107 29.9414 47.7644 29.9615C47.8181 29.9817 47.865 30.0085 47.9031 30.0443C47.9433 30.0801 47.9724 30.1226 47.9948 30.1718C48.0172 30.221 48.0283 30.2725 48.0283 30.3306C48.0283 30.4872 47.9523 30.6125 47.8046 30.7087V30.7131C47.8628 30.7378 47.912 30.7668 47.95 30.8026C47.9769 30.8071 48.0037 30.8116 48.0306 30.8138C48.0597 30.8161 48.0865 30.8183 48.1089 30.8183C48.1335 30.8183 48.1603 30.8161 48.1872 30.8116C48.214 30.8093 48.2409 30.8026 48.2699 30.7937C48.299 30.7825 48.3281 30.7691 48.3572 30.7512C48.3863 30.7355 48.4153 30.7109 48.4444 30.6841V29.957H50.8023L50.7038 29.7714C50.6524 29.6752 50.6054 29.5991 50.5651 29.5432C50.5226 29.4872 50.4846 29.4447 50.4466 29.4157C50.4108 29.3866 50.3728 29.3687 50.337 29.3597C50.3012 29.3508 50.2632 29.3463 50.2251 29.3463H49.9701V29.1338H50.2095C50.2609 29.1338 50.3079 29.1383 50.3482 29.1472C50.3884 29.1562 50.4287 29.1696 50.4645 29.192C50.5025 29.2121 50.5383 29.2434 50.5741 29.2814C50.6099 29.3195 50.6479 29.3687 50.6882 29.4268C50.7284 29.4873 50.7709 29.5588 50.8202 29.6416C50.8671 29.7266 50.9208 29.825 50.9835 29.9391L50.9924 29.957L51.3056 29.957Z" fill="#161616"/>
<path d="M54.8143 32.1947C54.8053 32.1723 54.7942 32.1544 54.7807 32.141C54.7651 32.1253 54.7472 32.1119 54.7271 32.1052C54.7091 32.0963 54.6868 32.0918 54.6666 32.0918C54.6197 32.0918 54.5794 32.1075 54.5503 32.1365C54.5212 32.1679 54.5078 32.2081 54.5078 32.2596C54.5078 32.2842 54.5123 32.3065 54.519 32.3267C54.528 32.3468 54.5391 32.3647 54.5548 32.3804C54.5682 32.396 54.5861 32.4072 54.604 32.4162C54.6242 32.4229 54.6465 32.4273 54.6689 32.4273C54.7159 32.4273 54.7539 32.4117 54.783 32.3826C54.812 32.3513 54.8277 32.311 54.8277 32.2618C54.8277 32.2372 54.8232 32.2148 54.8143 32.1947Z" fill="#161616"/>
<path d="M57.4479 29.957L57.4389 29.9391C57.3785 29.8251 57.3226 29.7266 57.2756 29.6416C57.2286 29.5588 57.1839 29.4873 57.1436 29.4269C57.1034 29.3687 57.0653 29.3195 57.0295 29.2814C56.996 29.2434 56.958 29.2121 56.9222 29.192C56.8841 29.1696 56.8461 29.1562 56.8036 29.1472C56.7633 29.1383 56.7163 29.1338 56.6671 29.1338H56.4278V29.3463H56.6806C56.7208 29.3463 56.7588 29.3508 56.7946 29.3597C56.8304 29.3687 56.8662 29.3866 56.9043 29.4157C56.94 29.4447 56.9803 29.4872 57.0206 29.5432C57.0631 29.5991 57.1078 29.6752 57.1593 29.7714L57.2577 29.957H51.9492V30.1494H53.2221V30.6058L53.2176 30.608C53.1774 30.5678 53.1349 30.5364 53.0924 30.5118C53.0499 30.4872 53.0074 30.4693 52.9693 30.4559C52.9291 30.4425 52.891 30.4335 52.8552 30.4313C52.8217 30.4268 52.7904 30.4246 52.7658 30.4246C52.683 30.4246 52.6069 30.438 52.5331 30.4671C52.4615 30.4962 52.3966 30.5364 52.3429 30.5856C52.2893 30.6371 52.2445 30.6952 52.2132 30.7646C52.1819 30.8339 52.1662 30.91 52.1662 30.9883C52.1662 31.0688 52.1819 31.1449 52.2132 31.2187C52.2445 31.2903 52.2893 31.3552 52.3452 31.4111C52.4011 31.4693 52.4705 31.514 52.5488 31.5476C52.627 31.5811 52.7143 31.5968 52.8082 31.5968C52.8597 31.5968 52.9067 31.5923 52.9469 31.5834C52.9894 31.5744 53.0275 31.561 53.061 31.5453C53.0946 31.5319 53.1237 31.5163 53.1505 31.4984C53.1751 31.4805 53.1997 31.4626 53.2176 31.4469L53.2221 31.4491V31.9122H53.4391V30.1494H54.75V30.5364H54.4793C54.3921 30.5364 54.3115 30.5499 54.2377 30.5767C54.1639 30.6035 54.099 30.6416 54.0453 30.6953C53.9916 30.749 53.9491 30.8161 53.92 30.8943C53.8887 30.9749 53.8753 31.0666 53.8753 31.1718C53.8753 31.2635 53.8865 31.3485 53.9089 31.4223C53.9335 31.4961 53.9648 31.561 54.0028 31.6192C54.0431 31.6773 54.0878 31.7265 54.1393 31.7668C54.193 31.8071 54.2467 31.8406 54.3048 31.8675C54.3652 31.8943 54.4234 31.9122 54.4838 31.9256C54.5442 31.9368 54.6023 31.9435 54.6605 31.9435C54.75 31.9435 54.8283 31.9301 54.8954 31.901C54.9603 31.8742 55.014 31.8384 55.0565 31.7937C55.099 31.7489 55.1303 31.6975 55.1504 31.6438C55.1706 31.5878 55.1795 31.5342 55.1795 31.4805C55.1795 31.4245 55.1705 31.3731 55.1527 31.3239C55.1325 31.2747 55.1057 31.2321 55.0721 31.1941C55.0386 31.1583 54.9961 31.127 54.9469 31.1046C54.8999 31.0823 54.8439 31.0711 54.7836 31.0711C54.7232 31.0711 54.6695 31.0823 54.6225 31.1046C54.5755 31.1248 54.5352 31.1539 54.5017 31.1919C54.4681 31.2277 54.4435 31.2702 54.4256 31.3194C54.4055 31.3686 54.3966 31.4178 54.3966 31.4737C54.3966 31.514 54.4033 31.5565 54.4145 31.599C54.4234 31.6415 54.4413 31.684 54.4637 31.7265L54.4614 31.731C54.3362 31.6885 54.2422 31.6236 54.1773 31.5319C54.1147 31.4402 54.0834 31.3283 54.0834 31.1986C54.0834 31.1315 54.0923 31.0689 54.1102 31.0107C54.1281 30.9548 54.1572 30.9033 54.193 30.863C54.2288 30.8205 54.2758 30.787 54.3317 30.7624C54.3876 30.74 54.4525 30.7266 54.5263 30.7266H54.9648V30.1494H55.6426V31.9122H55.8574V30.1494H57.2712V30.7109H56.4412C56.4144 30.7109 56.3898 30.7131 56.3629 30.7131C56.3383 30.7154 56.3137 30.7199 56.2936 30.7288C56.2734 30.7355 56.2578 30.749 56.2466 30.7646C56.2332 30.7803 56.2265 30.8004 56.2265 30.8295C56.2265 30.8608 56.2377 30.8988 56.2555 30.9458C56.2734 30.9906 56.298 31.033 56.3294 31.0755C56.3607 31.118 56.3965 31.1538 56.4367 31.1829C56.477 31.212 56.5195 31.2277 56.5665 31.2277C56.5866 31.2277 56.6045 31.221 56.6157 31.2098C56.6291 31.1964 56.6381 31.1785 56.6448 31.1516C56.6515 31.1248 56.6537 31.0912 56.656 31.0487C56.656 31.0084 56.6582 30.9592 56.6582 30.901H57.2712V31.9122H57.4882V30.1494H57.7633V29.957L57.4479 29.957ZM52.7702 31.3977C52.7053 31.3977 52.6472 31.3865 52.6002 31.3641C52.551 31.3418 52.5085 31.3127 52.4772 31.2769C52.4436 31.2389 52.419 31.1986 52.4011 31.1516C52.3854 31.1046 52.3765 31.0577 52.3765 31.0107C52.3765 30.9503 52.3877 30.8966 52.4123 30.8451C52.4347 30.7937 52.466 30.7534 52.5063 30.7199L52.938 31.3686C52.8865 31.3888 52.8306 31.3977 52.7702 31.3977ZM53.2288 31.0107C53.2288 31.0554 53.2176 31.1024 53.193 31.1494C53.1684 31.1964 53.1371 31.2389 53.0923 31.2769L52.6673 30.6371C52.6875 30.6326 52.7053 30.6281 52.7232 30.6259C52.7411 30.6237 52.7613 30.6214 52.7814 30.6214C52.8284 30.6214 52.8709 30.6282 52.9112 30.6394C52.9514 30.6505 52.9917 30.6662 53.0275 30.6863C53.0655 30.7065 53.0991 30.7311 53.1326 30.7579C53.1639 30.787 53.1975 30.8183 53.2288 30.8519L53.2288 31.0107ZM54.6404 31.3373C54.6762 31.2948 54.7232 31.2746 54.7813 31.2746C54.8082 31.2746 54.8305 31.2791 54.8551 31.2881C54.8775 31.297 54.8976 31.3104 54.9155 31.3261C54.9334 31.344 54.9469 31.3641 54.9558 31.391C54.967 31.4156 54.9715 31.4447 54.9715 31.476C54.9715 31.5073 54.9648 31.5386 54.9536 31.5744C54.9424 31.608 54.9245 31.6371 54.8976 31.6639C54.873 31.6907 54.8395 31.7131 54.7992 31.731C54.7589 31.7489 54.712 31.7578 54.6538 31.7578C54.6091 31.6751 54.5867 31.5945 54.5867 31.514C54.5867 31.438 54.6046 31.3798 54.6404 31.3373Z" fill="#161616"/>
<path d="M60.2928 29.4935C60.2838 29.4712 60.2727 29.4533 60.2592 29.4398C60.2436 29.4242 60.2257 29.4108 60.2056 29.4018C60.1876 29.3951 60.1653 29.3906 60.1451 29.3906C60.0982 29.3906 60.0579 29.4063 60.0288 29.4354C59.9998 29.4667 59.9863 29.5069 59.9863 29.5584C59.9863 29.583 59.9908 29.6054 59.9975 29.6255C60.0065 29.6456 60.0176 29.6635 60.0333 29.6792C60.0467 29.6949 60.0646 29.706 60.0825 29.715C60.1027 29.7217 60.125 29.7262 60.1474 29.7262C60.1944 29.7262 60.2324 29.7105 60.2615 29.6814C60.2906 29.6501 60.3062 29.6099 60.3062 29.5606C60.3062 29.536 60.3017 29.5137 60.2928 29.4935Z" fill="#161616"/>
<path d="M59.9903 29.957L59.9814 29.9391C59.9187 29.8251 59.8651 29.7266 59.8181 29.6416C59.7689 29.5588 59.7264 29.4873 59.6861 29.4269C59.6458 29.3687 59.6078 29.3195 59.572 29.2814C59.5362 29.2434 59.5004 29.2121 59.4624 29.192C59.4266 29.1696 59.3864 29.1562 59.3461 29.1472C59.3058 29.1383 59.2589 29.1338 59.2074 29.1338H58.968V29.3463H59.2231C59.2611 29.3463 59.2991 29.3508 59.3349 29.3597C59.3707 29.3687 59.4087 29.3866 59.4445 29.4157C59.4825 29.4447 59.5206 29.4872 59.5631 29.5432C59.6056 29.5991 59.6503 29.6752 59.7018 29.7714L59.8002 29.957H58.4043V30.1494H58.8785V30.9861H58.7376C58.7152 30.9861 58.6973 30.9861 58.6794 30.9883C58.6638 30.9906 58.6504 30.995 58.6369 31.0018C58.6257 31.0062 58.6168 31.0152 58.6101 31.0286C58.6034 31.0398 58.6012 31.0554 58.6012 31.0733C58.6012 31.1002 58.6079 31.1293 58.619 31.1606C58.6325 31.1919 58.6504 31.2232 58.6727 31.2545C58.6929 31.2858 58.7175 31.3172 58.7443 31.3462C58.7712 31.3753 58.8002 31.4022 58.8293 31.4245C58.8562 31.4491 58.8853 31.467 58.9143 31.4805C58.9412 31.4939 58.9658 31.5006 58.9904 31.5006C59.0128 31.5006 59.0307 31.4961 59.0441 31.4894C59.0575 31.4827 59.0687 31.4715 59.0754 31.4581C59.0821 31.4424 59.0866 31.4268 59.0888 31.4044C59.0911 31.3843 59.0933 31.3597 59.0933 31.3328V31.1762H59.8136V31.9122H60.0284V30.1495H60.3035V29.9571L59.9903 29.957ZM59.8136 30.9861H59.0933V30.1494H59.8136V30.9861Z" fill="#161616"/>
<path d="M60.9493 29.957V30.1494H61.5555C61.5712 30.1785 61.5846 30.2121 61.6003 30.2479C61.6159 30.2837 61.6316 30.3217 61.645 30.3619C61.6584 30.4022 61.6696 30.4447 61.6786 30.4894C61.6875 30.5342 61.692 30.5789 61.692 30.6237C61.692 30.6997 61.6763 30.7624 61.6495 30.8094C61.6204 30.8563 61.5757 30.8809 61.5153 30.8809C61.4951 30.8809 61.475 30.8765 61.4571 30.8697C61.4392 30.8653 61.4213 30.8541 61.4034 30.8384C61.3877 30.8228 61.3721 30.8026 61.3542 30.7758C61.3385 30.7512 61.3229 30.7176 61.305 30.6796L61.126 30.778C61.1506 30.8317 61.1819 30.8899 61.2155 30.9525C61.249 31.0174 61.2871 31.0823 61.3318 31.1516C61.3743 31.2187 61.4213 31.2881 61.4727 31.3574C61.5242 31.429 61.5801 31.4983 61.6383 31.5677C61.6964 31.6348 61.7591 31.7019 61.8262 31.7645C61.8933 31.8294 61.9649 31.8876 62.0387 31.9435L62.1797 31.7824C62.0499 31.684 61.9336 31.5789 61.8329 31.4648C61.7322 31.3485 61.6383 31.2254 61.5533 31.0934L61.5555 31.0867C61.6204 31.08 61.6763 31.0621 61.7233 31.0308H62.4816V31.9122H62.6986V30.1494H64.0699V30.4425H63.4771C63.4078 30.4425 63.3518 30.4492 63.3093 30.4648C63.2668 30.4782 63.2333 30.4984 63.2087 30.523C63.1863 30.5476 63.1684 30.5767 63.1595 30.6102C63.1505 30.6438 63.146 30.6796 63.146 30.7176C63.146 30.7825 63.1572 30.8429 63.1796 30.8988C63.2019 30.9548 63.2377 31.0107 63.287 31.0644C63.2512 31.1069 63.2243 31.1561 63.2042 31.212C63.1841 31.2679 63.1751 31.3328 63.1751 31.4066C63.1751 31.4827 63.1863 31.552 63.2087 31.6169C63.231 31.6818 63.2624 31.7422 63.3004 31.7959C63.3384 31.8496 63.3854 31.8988 63.4369 31.9435C63.4905 31.9883 63.5465 32.0285 63.6046 32.0666C63.665 32.1024 63.7254 32.1381 63.7881 32.1695C63.8529 32.1986 63.9156 32.2276 63.976 32.2545L64.0632 32.0733C64.0319 32.0621 63.9961 32.0464 63.9514 32.0263C63.9066 32.0062 63.8597 31.9838 63.8082 31.9547C63.759 31.9257 63.7075 31.8921 63.6583 31.8541C63.6069 31.816 63.5599 31.7758 63.5196 31.7288C63.4794 31.6818 63.4458 31.6304 63.4212 31.5767C63.3966 31.5207 63.3832 31.4604 63.3832 31.3955C63.3832 31.3328 63.3966 31.2791 63.4212 31.2389C63.4435 31.1964 63.4749 31.1628 63.5151 31.1405C63.5532 31.1159 63.5957 31.0979 63.6427 31.089C63.6896 31.08 63.7344 31.0756 63.7791 31.0756C63.891 31.0756 63.976 31.0957 64.0364 31.136C64.0968 31.1785 64.1259 31.2344 64.1259 31.306C64.1259 31.3418 64.1191 31.3709 64.1057 31.3955C64.0923 31.4201 64.0744 31.4424 64.052 31.4626C64.0297 31.4805 64.0028 31.4961 63.976 31.5095C63.9469 31.523 63.9178 31.5342 63.8887 31.5431L63.9693 31.7444C64.005 31.731 64.0453 31.7154 64.0878 31.693C64.1303 31.6728 64.1706 31.646 64.2064 31.6124C64.2444 31.5811 64.2735 31.5386 64.2981 31.4894C64.3227 31.4402 64.3339 31.382 64.3339 31.3105C64.3339 31.2366 64.3205 31.174 64.2914 31.118C64.2623 31.0644 64.2243 31.0196 64.1751 30.9838C64.1258 30.948 64.0677 30.9212 64.0006 30.9033C63.9335 30.8876 63.8619 30.8787 63.7836 30.8787C63.7187 30.8787 63.6538 30.8854 63.5934 30.8966C63.533 30.91 63.4771 30.9302 63.4257 30.9548C63.3988 30.919 63.3787 30.8877 63.3675 30.8586C63.3563 30.8295 63.3518 30.8004 63.3518 30.7691C63.3518 30.7467 63.3541 30.7266 63.3608 30.7087C63.3652 30.693 63.3764 30.6774 63.3898 30.6662C63.4033 30.655 63.4234 30.646 63.4458 30.6416C63.4681 30.6349 63.4972 30.6326 63.5308 30.6326H64.2847V30.1494H64.797V31.9122H65.0117V30.1494H65.5754C65.5978 30.1852 65.6179 30.2188 65.6336 30.2523C65.6493 30.2837 65.6627 30.3172 65.6716 30.3463C65.6806 30.3776 65.6873 30.4045 65.6918 30.4313C65.6962 30.4581 65.6985 30.4805 65.6985 30.5029C65.6985 30.5342 65.6918 30.5655 65.6806 30.5968C65.6694 30.6281 65.6493 30.6572 65.6246 30.6841C65.6 30.7109 65.5665 30.7333 65.5262 30.7512C65.4837 30.7713 65.4345 30.7847 65.3763 30.7937C65.3898 30.8787 65.4099 30.9615 65.4367 31.0398C65.4658 31.118 65.5038 31.1896 65.5531 31.25C65.6 31.3127 65.6604 31.3619 65.732 31.3977C65.8058 31.4357 65.8908 31.4536 65.9938 31.4536C66.043 31.4536 66.0922 31.4492 66.1392 31.4402C66.1839 31.4312 66.2286 31.4178 66.2689 31.4044C66.3092 31.3887 66.345 31.3731 66.3785 31.3552C66.4098 31.3351 66.4389 31.3172 66.4613 31.297L66.468 31.2993V31.9122H66.6828V30.1494H68.1122V30.5678H67.629C67.5463 30.5678 67.4702 30.5745 67.4031 30.5879C67.336 30.6013 67.2778 30.6259 67.2308 30.6617C67.1839 30.6975 67.1481 30.7445 67.1212 30.8049C67.0966 30.8653 67.0832 30.9413 67.0832 31.0308C67.0832 31.1225 67.0966 31.2098 67.119 31.2881C67.1436 31.3686 67.1749 31.4402 67.2107 31.5073C67.2465 31.5722 67.2868 31.6326 67.3293 31.684C67.3718 31.7355 67.4143 31.7802 67.4523 31.8183C67.4926 31.8541 67.5261 31.8831 67.5552 31.9055C67.5843 31.9257 67.6022 31.9391 67.6111 31.9435L67.7409 31.7937C67.6939 31.7511 67.6425 31.7064 67.591 31.6572C67.5395 31.6057 67.4926 31.552 67.4501 31.4939C67.4076 31.4335 67.3718 31.3686 67.3449 31.2993C67.3158 31.2277 67.3024 31.1516 67.3024 31.0666C67.3024 31.0017 67.3114 30.9503 67.3292 30.91C67.3472 30.8698 67.3717 30.8384 67.4053 30.8161C67.4389 30.7937 67.4791 30.7803 67.5261 30.7736C67.5731 30.7646 67.6268 30.7624 67.6849 30.7624H68.1122V31.9122H68.3247V30.1494H68.8079V31.9122H69.0227V30.1494H69.2978V29.957H60.9493ZM62.4817 30.8407H61.8665L61.8642 30.8384C61.8777 30.8071 61.8866 30.7735 61.8933 30.7378C61.8978 30.702 61.9 30.6662 61.9 30.6304C61.9 30.5498 61.8911 30.4716 61.8687 30.391C61.8486 30.3105 61.8195 30.23 61.7837 30.1494H62.4817V30.8407ZM66.4681 31.0263C66.4412 31.0621 66.4121 31.0934 66.3763 31.1203C66.3428 31.1494 66.307 31.1718 66.2667 31.1919C66.2265 31.212 66.184 31.2277 66.1415 31.2366C66.0967 31.2478 66.052 31.2523 66.0072 31.2523C65.958 31.2523 65.9155 31.2478 65.873 31.2344C65.8327 31.2232 65.7947 31.2031 65.7634 31.1762C65.7299 31.1494 65.7008 31.1158 65.6762 31.0733C65.6516 31.033 65.6314 30.9816 65.618 30.9234C65.6672 30.9077 65.7075 30.8854 65.7455 30.8563C65.7813 30.8272 65.8104 30.7959 65.835 30.7601C65.8596 30.7221 65.8775 30.6841 65.8909 30.6415C65.9021 30.5991 65.9088 30.5566 65.9088 30.5118C65.9088 30.4514 65.8999 30.3888 65.882 30.3261C65.8641 30.2613 65.8395 30.2031 65.8059 30.1494H66.4681L66.4681 31.0263Z" fill="#161616"/>
<path d="M73.6635 29.957H73.1177L73.1087 29.9391C73.0461 29.8251 72.9924 29.7266 72.9455 29.6416C72.8962 29.5588 72.8537 29.4873 72.8135 29.4269C72.7732 29.3687 72.7352 29.3195 72.6994 29.2814C72.6636 29.2434 72.6278 29.2121 72.5898 29.192C72.554 29.1696 72.5137 29.1562 72.4735 29.1472C72.4332 29.1383 72.3862 29.1338 72.3347 29.1338H72.0954V29.3463H72.3504C72.3884 29.3463 72.4265 29.3508 72.4623 29.3597C72.4981 29.3687 72.5361 29.3866 72.5719 29.4157C72.6099 29.4447 72.6479 29.4872 72.6904 29.5432C72.7329 29.5991 72.7777 29.6752 72.8291 29.7714L72.9276 29.957H69.9434V30.1494H71.0283V30.6304L71.0238 30.6326C71.0059 30.6147 70.9836 30.5991 70.9567 30.5789C70.9299 30.5588 70.8986 30.5409 70.865 30.523C70.8315 30.5073 70.7957 30.4917 70.7554 30.4805C70.7129 30.4693 70.6704 30.4626 70.6234 30.4626C70.5563 30.4626 70.4937 30.476 70.4355 30.5006C70.3773 30.5275 70.3259 30.5633 70.2834 30.608C70.2386 30.655 70.2051 30.7087 70.1805 30.7736C70.1559 30.8362 70.1425 30.9055 70.1425 30.9816C70.1425 31.0599 70.1559 31.1337 70.1827 31.2031C70.2096 31.2724 70.2476 31.3328 70.2946 31.3843C70.3438 31.4335 70.3997 31.4737 70.4646 31.5051C70.5295 31.5341 70.601 31.5498 70.6771 31.5498C70.7241 31.5498 70.7666 31.5431 70.8024 31.5341C70.8404 31.5229 70.8717 31.5095 70.9008 31.4961C70.9299 31.4804 70.9545 31.4648 70.9746 31.4491C70.9948 31.4335 71.0104 31.4178 71.0238 31.4066L71.0283 31.4111V31.9122H71.2431V31.0263C71.252 30.9928 71.2677 30.9547 71.2923 30.9145C71.3169 30.8742 71.346 30.8362 71.3795 30.8004C71.4153 30.7668 71.4534 30.7355 71.4958 30.7131C71.5406 30.6885 71.5831 30.6774 71.6301 30.6774C71.6636 30.6774 71.6972 30.6841 71.7263 30.6997C71.7554 30.7154 71.78 30.7355 71.8001 30.7601C71.8225 30.7847 71.8381 30.8161 71.8493 30.8496C71.8627 30.8832 71.8672 30.919 71.8672 30.957C71.8672 30.9973 71.8605 31.0375 71.8471 31.0733C71.8359 31.1091 71.818 31.1449 71.7956 31.1762C71.7755 31.2075 71.7509 31.2366 71.724 31.2635C71.6972 31.2903 71.6703 31.3127 71.6435 31.3351C71.6144 31.3552 71.5898 31.3731 71.563 31.3887C71.5384 31.4044 71.516 31.4178 71.5003 31.4268L71.6167 31.6281C71.6703 31.599 71.724 31.5632 71.7777 31.5207C71.8336 31.4782 71.8829 31.429 71.9276 31.3753C71.9701 31.3194 72.0059 31.259 72.035 31.1896C72.0618 31.1225 72.0753 31.0487 72.0753 30.9682C72.0753 30.8966 72.0641 30.8317 72.0439 30.7713C72.0216 30.7087 71.9902 30.6572 71.95 30.6102C71.912 30.5655 71.865 30.5297 71.8113 30.5051C71.7576 30.4782 71.6994 30.4671 71.6368 30.4671C71.5563 30.4671 71.4824 30.485 71.4176 30.523C71.3505 30.5588 71.2945 30.608 71.2498 30.6706L71.2431 30.6662V30.1494H72.9343C72.9522 30.183 72.9723 30.2188 72.9924 30.2546C73.0126 30.2904 73.0327 30.3261 73.0484 30.3642C73.0663 30.4022 73.0797 30.4425 73.0886 30.4805C73.0998 30.5208 73.1043 30.561 73.1043 30.6035C73.1043 30.6371 73.0998 30.6729 73.0886 30.7087C73.0797 30.7467 73.064 30.778 73.0439 30.8093C73.0238 30.8384 72.9992 30.863 72.9678 30.8832C72.9388 30.9033 72.9052 30.9122 72.8672 30.9122C72.8157 30.9122 72.7687 30.8921 72.7307 30.8541C72.6904 30.8138 72.6547 30.7623 72.6233 30.693L72.4444 30.7892C72.4667 30.8407 72.4958 30.8966 72.5294 30.9592C72.5607 31.0196 72.5987 31.0845 72.6412 31.1516C72.6837 31.2187 72.7307 31.2858 72.7821 31.3574C72.8336 31.4268 72.8895 31.4961 72.9477 31.5655C73.0081 31.6348 73.0707 31.6997 73.1378 31.7645C73.2049 31.8294 73.2743 31.8876 73.3481 31.9435L73.4891 31.7824C73.3615 31.684 73.2475 31.5811 73.149 31.4715C73.0528 31.3641 72.9634 31.2478 72.8851 31.1248L72.8873 31.118C72.9566 31.1158 73.0193 31.1001 73.073 31.0711C73.1267 31.042 73.1714 31.0062 73.2072 30.9615C73.2452 30.9167 73.2721 30.8652 73.29 30.8071C73.3101 30.7512 73.319 30.6908 73.319 30.6281C73.319 30.5476 73.3056 30.4648 73.2765 30.3866C73.2497 30.306 73.2139 30.2277 73.1692 30.1494H73.6635L73.6635 29.957ZM71.0305 30.9302C71.0305 31.004 71.0194 31.0666 70.997 31.1203C70.9724 31.1718 70.9433 31.2165 70.9053 31.2501C70.8695 31.2836 70.8314 31.3105 70.7867 31.3261C70.7442 31.3418 70.7017 31.3507 70.6637 31.3507C70.6167 31.3507 70.5742 31.3395 70.5362 31.3194C70.4981 31.2993 70.4646 31.2724 70.4377 31.2389C70.4087 31.2053 70.3885 31.1673 70.3729 31.127C70.3594 31.0845 70.3505 31.0443 70.3505 31.0018C70.3505 30.9637 70.3572 30.9235 70.3706 30.8832C70.3841 30.8452 70.4019 30.8094 70.4266 30.7758C70.4534 30.7445 70.4847 30.7176 70.5228 30.6975C70.5608 30.6774 70.6033 30.6662 70.6547 30.6662C70.6905 30.6662 70.7263 30.6729 70.7621 30.6841C70.7979 30.6953 70.8337 30.7087 70.865 30.7266C70.8986 30.7445 70.9299 30.7669 70.9567 30.7915C70.9858 30.8138 71.0104 30.8407 71.0306 30.8653L71.0305 30.9302Z" fill="#161616"/>
<path d="M74.4826 32.3141C74.4475 32.3141 74.4175 32.3016 74.3924 32.2765C74.3673 32.2514 74.3547 32.2213 74.3547 32.1863C74.3547 32.1512 74.3673 32.1212 74.3924 32.0961C74.4175 32.071 74.4475 32.0584 74.4826 32.0584C74.5176 32.0584 74.5477 32.071 74.5728 32.0961C74.5979 32.1212 74.6104 32.1512 74.6104 32.1863C74.6104 32.2095 74.6045 32.2308 74.5926 32.2502C74.5813 32.2696 74.5659 32.2852 74.5465 32.2971C74.5275 32.3084 74.5062 32.3141 74.4826 32.3141ZM75.0333 32.3141C74.9983 32.3141 74.9682 32.3016 74.9431 32.2765C74.918 32.2514 74.9055 32.2213 74.9055 32.1863C74.9055 32.1512 74.918 32.1212 74.9431 32.0961C74.9682 32.071 74.9983 32.0584 75.0333 32.0584C75.0684 32.0584 75.0984 32.071 75.1235 32.0961C75.1486 32.1212 75.1612 32.1512 75.1612 32.1863C75.1612 32.2095 75.1553 32.2308 75.1434 32.2502C75.1321 32.2696 75.1167 32.2852 75.0973 32.2971C75.0783 32.3084 75.057 32.3141 75.0333 32.3141ZM75.5841 32.3141C75.5491 32.3141 75.519 32.3016 75.4939 32.2765C75.4688 32.2514 75.4563 32.2213 75.4563 32.1863C75.4563 32.1512 75.4688 32.1212 75.4939 32.0961C75.519 32.071 75.5491 32.0584 75.5841 32.0584C75.6192 32.0584 75.6492 32.071 75.6743 32.0961C75.6994 32.1212 75.712 32.1512 75.712 32.1863C75.712 32.2095 75.706 32.2308 75.6942 32.2502C75.6828 32.2696 75.6675 32.2852 75.648 32.2971C75.6291 32.3084 75.6078 32.3141 75.5841 32.3141ZM74.4826 34.3141C74.4475 34.3141 74.4175 34.3016 74.3924 34.2765C74.3673 34.2514 74.3547 34.2213 74.3547 34.1863C74.3547 34.1512 74.3673 34.1212 74.3924 34.0961C74.4175 34.071 74.4475 34.0584 74.4826 34.0584C74.5176 34.0584 74.5477 34.071 74.5728 34.0961C74.5979 34.1212 74.6104 34.1512 74.6104 34.1863C74.6104 34.2095 74.6045 34.2308 74.5926 34.2502C74.5813 34.2696 74.5659 34.2852 74.5465 34.2971C74.5275 34.3084 74.5062 34.3141 74.4826 34.3141Z" fill="#010101"/>
<defs>
<linearGradient id="paint0_linear_181_782" x1="-0.796732" y1="0.342458" x2="21.6127" y2="36.5393" gradientUnits="userSpaceOnUse">
<stop stop-color="#DCE35E"/>
<stop offset="1" stop-color="#F15F64"/>
</linearGradient>
<linearGradient id="paint1_linear_181_782" x1="1.4671" y1="-1.0594" x2="23.8765" y2="35.1374" gradientUnits="userSpaceOnUse">
<stop stop-color="#DCE35E"/>
<stop offset="1" stop-color="#F15F64"/>
</linearGradient>
<linearGradient id="paint2_linear_181_782" x1="-7.18837" y1="4.29915" x2="15.2211" y2="40.496" gradientUnits="userSpaceOnUse">
<stop stop-color="#DCE35E"/>
<stop offset="1" stop-color="#F15F64"/>
</linearGradient>
</defs>
</svg>
