<svg width="114" height="33" viewBox="0 0 114 33" fill="none" xmlns="http://www.w3.org/2000/svg">
<path d="M14.9463 4.06454C13.55 1.58464 11.0284 0.0655803 8.19983 0.0021921C8.06718 -0.000730699 7.93334 -0.000730699 7.79953 0.0021921C4.97154 0.0655803 2.44996 1.58464 1.05359 4.06454C-0.363323 6.58202 -0.350415 9.57493 1.08821 12.0707L7.3229 22.8878L4.78135 27.297C4.11279 28.4574 4.10283 29.8515 4.75553 31.026C5.39532 32.177 6.55634 32.8908 7.86173 32.9348C7.90752 32.9366 7.95389 32.9372 8.00026 32.9372C8.04663 32.9372 8.09242 32.9366 8.13879 32.9348C9.44418 32.8908 10.6052 32.177 11.2444 31.026C11.8971 29.8515 11.8871 28.4575 11.2186 27.297L8.67765 22.8878L14.9118 12.0707C16.3504 9.57493 16.3633 6.58144 14.9463 4.06454ZM10.2014 27.8834C10.6627 28.6834 10.6686 29.6449 10.2184 30.456C9.78052 31.2437 8.98871 31.7315 8.09945 31.7614C8.03311 31.7638 7.96622 31.7638 7.90107 31.7614C7.01181 31.7315 6.21942 31.2437 5.78213 30.456C5.33135 29.6449 5.33781 28.6834 5.79857 27.8834L8.00026 24.0634L10.2014 27.8834ZM13.8945 11.4849L8.00026 21.7127L2.1054 11.4849C0.875729 9.35127 0.865165 6.79273 2.07663 4.64034C3.26758 2.52493 5.41703 1.2301 7.8259 1.17551C7.88402 1.17432 7.94211 1.17375 8.00023 1.17375C8.05835 1.17375 8.11644 1.17432 8.17398 1.17551C10.5835 1.2301 12.7323 2.52493 13.9232 4.64034C15.1347 6.79273 15.1242 9.35127 13.8945 11.4849Z" fill="url(#paint0_linear_1_110)"/>
<path d="M10.5475 7.46332C10.3849 7.1669 10.1354 6.93095 9.79792 6.75603C9.46043 6.58112 9.02959 6.49365 8.50486 6.49365H6.39648V13.0535H7.1836V10.448H8.50486C9.03547 10.448 9.46807 10.3605 9.80264 10.1856C10.1366 10.0107 10.3849 9.77358 10.5475 9.47366C10.7101 9.17374 10.7911 8.83975 10.7911 8.47114C10.7911 8.09608 10.7101 7.76032 10.5475 7.46332ZM9.65233 9.42199C9.43105 9.66264 9.04481 9.78299 8.49542 9.78299H7.18357V7.1493H8.49542C9.04481 7.1493 9.43105 7.2667 9.65233 7.50089C9.87419 7.73508 9.98513 8.05851 9.98513 8.47114C9.98513 8.86441 9.87419 9.18135 9.65233 9.42199Z" fill="url(#paint1_linear_1_110)"/>
<path d="M9.45724 28.7346V28.9336H8.84561C8.45177 28.9729 8.13891 29.2857 8.0996 29.679V30.2912H7.90061V29.679C7.86127 29.2857 7.54844 28.9729 7.15459 28.9336H6.54297V28.7346H7.15459C7.54844 28.6953 7.8613 28.3824 7.90061 27.9892V27.377H8.0996V27.9892C8.13894 28.3824 8.45177 28.6953 8.84561 28.7346H9.45724Z" fill="url(#paint2_linear_1_110)"/>
<path d="M25 23.0325V3.69067H31.6039C33.1327 3.69067 34.3989 3.94881 35.4032 4.46426C36.407 4.98025 37.1483 5.67098 37.6274 6.53665C38.1062 7.40275 38.3459 8.38799 38.3459 9.49322C38.3459 10.5432 38.111 11.5059 37.6413 12.3807C37.1715 13.2558 36.4393 13.9604 35.4446 14.4944C34.4499 15.029 33.1693 15.2958 31.6039 15.2958H27.7631V23.0325H25ZM27.7631 13.0024H31.4934C32.9302 13.0024 33.9616 12.6803 34.588 12.0353C35.2141 11.3907 35.5275 10.5342 35.5275 9.46563C35.5275 8.36039 35.2141 7.50385 34.588 6.89593C33.9616 6.28807 32.9302 5.98411 31.4934 5.98411H27.7631V13.0024Z" fill="#191919"/>
<path d="M40.8315 6.48153C40.2969 6.48153 39.8596 6.3157 39.519 5.98411C39.1779 5.65256 39.0078 5.22904 39.0078 4.71315C39.0078 4.21573 39.1779 3.80605 39.519 3.48353C39.8596 3.16143 40.297 3 40.8315 3C41.3469 3 41.78 3.16143 42.1302 3.48353C42.4798 3.80605 42.6551 4.21573 42.6551 4.71315C42.6551 5.22904 42.4798 5.65256 42.1302 5.98411C41.78 6.31575 41.3469 6.48153 40.8315 6.48153ZM39.4499 23.0326V9.10646H42.213V23.0326H39.4499Z" fill="#191919"/>
<path d="M44.2305 23.0322V9.10605H46.7173L46.883 11.4823C47.3252 10.6352 47.9469 9.97211 48.7482 9.49287C49.5495 9.01408 50.4842 8.77441 51.5527 8.77441C52.6761 8.77441 53.6342 8.99551 54.4264 9.4376C55.2182 9.87975 55.8308 10.5476 56.2639 11.4409C56.6964 12.3346 56.9132 13.4536 56.9132 14.7981V23.0322H54.1501V15.0744C54.1501 13.7853 53.8643 12.8043 53.2935 12.1317C52.7223 11.4595 51.8934 11.1232 50.8067 11.1232C50.0883 11.1232 49.4433 11.2984 48.8726 11.6482C48.3013 11.9983 47.8454 12.5047 47.5047 13.1679C47.1636 13.8311 46.9936 14.6418 46.9936 15.5994V23.0322L44.2305 23.0322Z" fill="#191919"/>
<path d="M63.1845 23.0328V5.95666H57.4648V3.69092H71.695V5.95666H65.9477V23.0328H63.1845Z" fill="#191919"/>
<path d="M76.1176 23.3642C75.0491 23.3642 74.1096 23.1431 73.2992 22.7011C72.4885 22.2589 71.8715 21.5958 71.448 20.7115C71.024 19.8273 70.8125 18.713 70.8125 17.3682V9.10645H73.5756V17.0642C73.5756 18.3906 73.8562 19.3809 74.4183 20.0346C74.9801 20.6887 75.8042 21.0155 76.8914 21.0155C77.6097 21.0155 78.2544 20.8407 78.8255 20.4905C79.3963 20.1408 79.8522 19.6387 80.1933 18.9846C80.534 18.331 80.7045 17.5249 80.7045 16.5669V9.10645H83.4676V23.0326H80.9808L80.815 20.6563C80.3911 21.5037 79.7693 22.1669 78.95 22.6457C78.1301 23.1245 77.1858 23.3642 76.1176 23.3642Z" fill="#191919"/>
<path d="M91.4519 23.3645C90.1436 23.3645 88.9831 23.0468 87.9703 22.4112C86.9571 21.7757 86.1743 20.9053 85.6217 19.8001C85.0691 18.6948 84.7927 17.4514 84.7927 16.0699C84.7927 14.6515 85.0691 13.3943 85.6217 12.2982C86.1743 11.2024 86.9618 10.3411 87.9842 9.71466C89.0065 9.08866 90.1713 8.77515 91.4795 8.77515C92.6029 8.77515 93.5748 8.9919 94.3946 9.4245C95.214 9.85752 95.8544 10.4607 96.315 11.2344V3.13843H99.0781V23.0329H96.5913L96.3426 20.85C96.0477 21.2922 95.6747 21.7023 95.2236 22.0796C94.772 22.4574 94.2379 22.7661 93.6209 23.0052C93.0036 23.2445 92.2808 23.3645 91.4519 23.3645ZM91.9492 20.9606C92.8148 20.9606 93.5747 20.7534 94.2288 20.3389C94.8824 19.9245 95.3893 19.3537 95.7485 18.6258C96.1077 17.8983 96.2872 17.0465 96.2872 16.0699C96.2872 15.0933 96.1077 14.2372 95.7485 13.5002C95.3892 12.7637 94.8824 12.1925 94.2288 11.7871C93.5747 11.3821 92.8149 11.1792 91.9492 11.1792C91.1017 11.1792 90.3466 11.3821 89.6835 11.7871C89.0203 12.1925 88.5091 12.7637 88.1499 13.5002C87.7907 14.2372 87.6111 15.0847 87.6111 16.0423C87.6111 17.037 87.7907 17.8983 88.1499 18.6258C88.5091 19.3537 89.0203 19.9245 89.6835 20.3389C90.3466 20.7534 91.1017 20.9606 91.9492 20.9606Z" fill="#191919"/>
<path d="M113.044 12.09C112.52 11.0953 111.77 10.2944 110.793 9.68734C109.817 9.07875 108.646 8.77441 107.284 8.77441C105.921 8.77441 104.719 9.08324 103.678 9.70095C102.637 10.3187 101.837 11.174 101.273 12.2701C100.712 13.3662 100.432 14.6425 100.432 16.0974C100.432 17.5523 100.721 18.824 101.302 19.911C101.882 20.998 102.683 21.8444 103.706 22.4529C104.728 23.06 105.903 23.3643 107.229 23.3643C108.334 23.3643 109.3 23.1705 110.13 22.7845C110.958 22.3969 111.659 21.8686 112.23 21.1949C112.801 20.5227 113.206 19.7627 113.445 18.9148H110.683C110.424 19.5795 110.006 20.1033 109.426 20.4909C108.845 20.8769 108.113 21.0707 107.229 21.0707C106.474 21.0707 105.786 20.8875 105.17 20.5181C104.553 20.1503 104.061 19.6158 103.691 18.9148C103.37 18.3047 103.188 17.5674 103.148 16.7045H113.777C113.813 16.4653 113.833 16.2352 113.833 16.0141V15.407C113.833 14.1913 113.57 13.0862 113.044 12.09ZM103.179 14.7712C103.252 14.1141 103.423 13.5479 103.691 13.071C104.061 12.4185 104.557 11.9204 105.184 11.5798C105.811 11.2391 106.501 11.0681 107.256 11.0681C108.324 11.0681 109.219 11.3996 109.936 12.0628C110.655 12.7259 111.041 13.6297 111.097 14.7712L103.179 14.7712Z" fill="#191919"/>
<path d="M30.7819 29.9555H30.4907V28.8781H29.3066V29.9555H29.0154V27.6455H29.3066V28.6226H30.4907V27.6455H30.7819V29.9555Z" fill="#191919"/>
<path d="M33.6751 29.9555H32.3845V27.6455H33.6751V27.9011H32.6757V28.6226H33.617V28.8749H32.6757V29.7H33.6751V29.9555Z" fill="#191919"/>
<path d="M35.1521 29.9557V27.6456H35.4433V29.6967H36.4527V29.9557H35.1521Z" fill="#191919"/>
<path d="M38.4297 27.6456C38.7315 27.6456 38.9515 27.705 39.0897 27.8235C39.2275 27.9422 39.2966 28.1094 39.2966 28.325C39.2966 28.42 39.2811 28.511 39.2499 28.5986C39.2183 28.6859 39.1673 28.764 39.0961 28.8331C39.0249 28.902 38.9299 28.9566 38.8112 28.9964C38.6925 29.0363 38.5469 29.0563 38.3744 29.0563H38.1094V29.9557H37.8181V27.6456H38.4297ZM38.4038 27.8947H38.1094V28.8072H38.3421C38.4888 28.8072 38.6107 28.7914 38.7078 28.7603C38.8049 28.7289 38.8771 28.6788 38.9246 28.6097C38.9721 28.5408 38.9958 28.4502 38.9958 28.338C38.9958 28.1892 38.9484 28.0781 38.8534 28.0047C38.7584 27.9314 38.6086 27.8947 38.4038 27.8947Z" fill="#191919"/>
<path d="M41.397 29.9557H40.5623V29.7874L40.834 29.7261V27.8786L40.5623 27.8139V27.6456H41.397V27.8139L41.1252 27.8786V29.7261L41.397 29.7874V29.9557Z" fill="#191919"/>
<path d="M44.6432 29.9556H44.3034L43.0676 28.0371H43.0549C43.0592 28.0866 43.0627 28.1455 43.0662 28.2133C43.0694 28.2813 43.0726 28.3536 43.0758 28.4301C43.079 28.5067 43.0808 28.585 43.0808 28.6647V29.9556H42.8122V27.6456H43.1484L44.3814 29.5577H44.3941C44.392 29.5233 44.3892 29.4716 44.386 29.4023C44.3828 29.3332 44.3796 29.2578 44.3764 29.1759C44.3732 29.0939 44.3715 29.0184 44.3715 28.9493V27.6455H44.6432V29.9556Z" fill="#191919"/>
<path d="M47.2463 28.735H48.0452V29.8671C47.9202 29.9082 47.794 29.9383 47.6668 29.9578C47.5393 29.9773 47.3951 29.9868 47.2332 29.9868C46.9937 29.9868 46.7921 29.939 46.6281 29.843C46.4644 29.747 46.3397 29.6099 46.2547 29.432C46.1693 29.2541 46.1268 29.0434 46.1268 28.7996C46.1268 28.5582 46.1742 28.3488 46.2692 28.172C46.3642 27.9951 46.5006 27.8577 46.6784 27.7594C46.8563 27.6612 47.0713 27.6122 47.3239 27.6122C47.4532 27.6122 47.5755 27.624 47.691 27.6478C47.8065 27.6715 47.9138 27.705 48.013 27.748L47.9029 28.0005C47.821 27.9638 47.7289 27.9325 47.6265 27.9066C47.5237 27.8807 47.4178 27.8678 47.3076 27.8678C47.1244 27.8678 46.9668 27.9055 46.8353 27.981C46.7035 28.0566 46.6033 28.1638 46.5346 28.3031C46.4655 28.4421 46.4308 28.6076 46.4308 28.7996C46.4308 28.9829 46.4605 29.1452 46.52 29.2866C46.5792 29.4278 46.6724 29.538 46.7996 29.6166C46.9271 29.6953 47.094 29.7346 47.3013 29.7346C47.4026 29.7346 47.4887 29.7293 47.5599 29.7183C47.6311 29.7077 47.6959 29.6945 47.754 29.6796V28.9937H47.2463V28.735Z" fill="#191919"/>
<path d="M51.9835 28.781L52.5855 27.6455H52.8994L52.1292 29.0593V29.9555H51.8379V29.0723L51.0681 27.6455H51.3851L51.9835 28.781Z" fill="#191919"/>
<path d="M56.1339 28.7969C56.1339 28.9759 56.1112 29.1383 56.0659 29.2837C56.0205 29.4293 55.9532 29.5551 55.8636 29.6607C55.7743 29.7663 55.663 29.8474 55.5305 29.9034C55.3977 29.9594 55.2443 29.9874 55.0692 29.9874C54.8882 29.9874 54.7309 29.959 54.597 29.9016C54.4634 29.8446 54.3521 29.7638 54.2639 29.6589C54.1754 29.5544 54.1094 29.4286 54.0665 29.2821C54.0233 29.1355 54.0017 28.9727 54.0017 28.7935C54.0017 28.5563 54.0407 28.3493 54.1183 28.1725C54.1959 27.9956 54.3139 27.8575 54.4726 27.7583C54.631 27.6591 54.8312 27.6095 55.0728 27.6095C55.3034 27.6095 55.4975 27.6585 55.6549 27.7567C55.8125 27.8548 55.9316 27.9928 56.0124 28.1709C56.0935 28.3487 56.1339 28.5574 56.1339 28.7969ZM54.3093 28.7969C54.3093 28.9911 54.3362 29.1581 54.39 29.2984C54.4439 29.4385 54.5275 29.5463 54.6409 29.6217C54.7539 29.6976 54.8967 29.7351 55.0692 29.7351C55.2443 29.7351 55.387 29.6976 55.4979 29.6217C55.6092 29.5463 55.6917 29.4385 55.7456 29.2984C55.7995 29.1581 55.8264 28.9911 55.8264 28.7969C55.8264 28.5057 55.7661 28.2775 55.6453 28.1126C55.5245 27.9477 55.3336 27.8651 55.0728 27.8651C54.8977 27.8651 54.7539 27.9023 54.6409 27.9767C54.5275 28.0512 54.4439 28.1579 54.39 28.297C54.3362 28.436 54.3093 28.6027 54.3093 28.7969Z" fill="#191919"/>
<path d="M59.3709 29.1404C59.3709 29.3 59.3386 29.444 59.2738 29.5723C59.2093 29.7005 59.1104 29.8018 58.9779 29.8763C58.845 29.9507 58.6764 29.9879 58.4716 29.9879C58.1846 29.9879 57.9664 29.9099 57.8162 29.7533C57.6663 29.5971 57.5916 29.3905 57.5916 29.1338V27.6456H57.8828V29.1436C57.8828 29.3312 57.9328 29.4766 58.033 29.5801C58.1333 29.6839 58.2849 29.7356 58.4876 29.7356C58.6279 29.7356 58.7416 29.7104 58.8291 29.6595C58.9163 29.6088 58.9804 29.539 59.0215 29.4494C59.0626 29.3599 59.0831 29.2568 59.0831 29.1404V27.6457H59.3709V29.1404Z" fill="#191919"/>
<path d="M61.5883 27.6456C61.78 27.6456 61.938 27.6699 62.062 27.7185C62.186 27.767 62.2784 27.8398 62.3387 27.9369C62.3993 28.034 62.4293 28.1559 62.4293 28.3024C62.4293 28.4253 62.4067 28.5278 62.3613 28.6097C62.316 28.6917 62.2582 28.7569 62.1884 28.8054C62.1183 28.8539 62.0442 28.8924 61.9667 28.9204L62.6009 29.9557H62.2611L61.7013 29.0012H61.2422V29.9557H60.9509V27.6456H61.5883ZM61.572 27.8981H61.2422V28.7553H61.5883C61.7758 28.7553 61.9129 28.7181 61.999 28.6437C62.0854 28.5693 62.1287 28.4598 62.1287 28.3154C62.1287 28.2139 62.1085 28.1332 62.0688 28.0727C62.0288 28.0123 61.9678 27.968 61.886 27.94C61.8038 27.9121 61.6992 27.8981 61.572 27.8981Z" fill="#191919"/>
<path d="M66.4059 27.6456C66.6947 27.6456 66.9132 27.6882 67.061 27.7733C67.2087 27.8586 67.2824 28.0068 67.2824 28.2183C67.2824 28.3088 67.2658 28.3892 67.2324 28.4592C67.1988 28.5293 67.1492 28.5876 67.0837 28.6338C67.0178 28.6802 66.9373 28.7121 66.8424 28.7293V28.7456C66.9395 28.7607 67.0273 28.7887 67.1063 28.8296C67.185 28.8707 67.247 28.929 67.2923 29.0044C67.3376 29.0799 67.36 29.178 67.36 29.2989C67.36 29.439 67.3277 29.558 67.2633 29.6562C67.1984 29.7543 67.1063 29.8287 66.9866 29.8794C66.8668 29.9304 66.724 29.9555 66.5579 29.9555H65.7458V27.6455L66.4059 27.6456ZM66.464 28.6291C66.6624 28.6291 66.7985 28.5974 66.8718 28.5336C66.9448 28.47 66.9816 28.3758 66.9816 28.2505C66.9816 28.1233 66.937 28.0321 66.8474 27.9772C66.7577 27.9223 66.6149 27.8946 66.4187 27.8946H66.0371V28.6291L66.464 28.6291ZM66.0371 28.8718V29.7096H66.503C66.7078 29.7096 66.8502 29.6696 66.9299 29.5899C67.0096 29.5102 67.0496 29.4055 67.0496 29.2761C67.0496 29.1941 67.0319 29.1229 66.9962 29.0625C66.9607 29.0023 66.9012 28.9553 66.8183 28.9219C66.735 28.8884 66.6224 28.8718 66.4803 28.8718H66.0371Z" fill="#191919"/>
<path d="M70.5758 29.1403C70.5758 29.2999 70.5436 29.4439 70.4787 29.5721C70.4142 29.7004 70.3154 29.8017 70.1829 29.8761C70.05 29.9506 69.8814 29.9877 69.6766 29.9877C69.3896 29.9877 69.1713 29.9098 69.0212 29.7532C68.8713 29.597 68.7965 29.3904 68.7965 29.1337V27.6455H69.0878V29.1434C69.0878 29.3311 69.1377 29.4765 69.238 29.5799C69.3383 29.6837 69.4899 29.7355 69.6925 29.7355C69.8328 29.7355 69.9466 29.7103 70.0341 29.6593C70.1212 29.6087 70.1854 29.5389 70.2265 29.4492C70.2676 29.3598 70.2881 29.2567 70.2881 29.1403V27.6456H70.5758V29.1403Z" fill="#191919"/>
<path d="M73.4647 29.3378C73.4647 29.476 73.4314 29.5929 73.3644 29.6889C73.2974 29.7849 73.2021 29.8586 73.0781 29.9104C72.9541 29.9621 72.8078 29.988 72.6398 29.988C72.5534 29.988 72.4708 29.9837 72.3922 29.9752C72.3135 29.9664 72.2416 29.954 72.1771 29.938C72.1123 29.9217 72.0552 29.9019 72.0056 29.8782V29.6001C72.0832 29.6345 72.1796 29.6656 72.2951 29.6936C72.4106 29.722 72.5296 29.7358 72.6526 29.7358C72.767 29.7358 72.863 29.7209 72.9406 29.6904C73.0182 29.6603 73.0763 29.6171 73.1153 29.5611C73.1539 29.5051 73.1734 29.4392 73.1734 29.3637C73.1734 29.2883 73.1574 29.2245 73.1249 29.1728C73.0926 29.1211 73.037 29.073 72.9584 29.029C72.8797 28.9847 72.7702 28.9378 72.6299 28.8881C72.5307 28.8515 72.444 28.8121 72.3695 28.77C72.2951 28.728 72.2331 28.68 72.1836 28.6261C72.134 28.5723 72.0967 28.5108 72.0719 28.4417C72.0472 28.3727 72.0348 28.2929 72.0348 28.2022C72.0348 28.0793 72.0659 27.9742 72.1287 27.8869C72.191 27.7995 72.2779 27.7321 72.3891 27.6846C72.5 27.6371 72.6279 27.6134 72.7724 27.6134C72.8996 27.6134 73.0162 27.6253 73.1218 27.649C73.2273 27.6727 73.3234 27.7041 73.4098 27.7429L73.3191 27.992C73.2394 27.9576 73.1526 27.9284 73.0587 27.9046C72.9648 27.8809 72.8674 27.869 72.7661 27.869C72.669 27.869 72.5879 27.883 72.5234 27.9112C72.4586 27.9392 72.41 27.9785 72.3778 28.0292C72.3456 28.0798 72.3293 28.1386 72.3293 28.2056C72.3293 28.2832 72.3456 28.3478 72.3778 28.3996C72.41 28.4515 72.4628 28.4979 72.5361 28.5388C72.6094 28.5798 72.7087 28.6241 72.8337 28.6713C72.9698 28.7211 73.0846 28.7744 73.1784 28.8316C73.2724 28.8887 73.3435 28.9572 73.3921 29.037C73.4406 29.1168 73.4647 29.217 73.4647 29.3378Z" fill="#191919"/>
<path d="M75.5495 29.9555H74.7148V29.7873L74.9865 29.7259V27.8785L74.7148 27.8138V27.6455H75.5495V27.8138L75.2777 27.8785V29.7259L75.5495 29.7873V29.9555Z" fill="#191919"/>
<path d="M78.8015 29.9557H78.4617L77.2259 28.0372H77.2132C77.2174 28.0868 77.221 28.1456 77.2245 28.2134C77.2277 28.2814 77.2309 28.3537 77.2341 28.4303C77.2372 28.5068 77.239 28.5851 77.239 28.6648V29.9557H76.9705V27.6457H77.3067L78.5397 29.5578H78.5524C78.5503 29.5234 78.5474 29.4717 78.5442 29.4024C78.541 29.3334 78.5379 29.2579 78.5347 29.176C78.5315 29.094 78.5297 29.0186 78.5297 28.9494V27.6456H78.8015V29.9557Z" fill="#191919"/>
<path d="M81.6889 29.9557H80.3982V27.6456H81.6889V27.9013H80.6894V28.6228H81.6308V28.875H80.6894V29.7002H81.6889V29.9557Z" fill="#191919"/>
<path d="M84.4783 29.3378C84.4783 29.476 84.445 29.5929 84.378 29.6889C84.3111 29.7849 84.2158 29.8586 84.0918 29.9104C83.9678 29.9621 83.8215 29.988 83.6535 29.988C83.5671 29.988 83.4845 29.9837 83.4058 29.9752C83.3272 29.9664 83.2553 29.954 83.1908 29.938C83.1259 29.9217 83.0689 29.9019 83.0193 29.8782V29.6001C83.0969 29.6345 83.1933 29.6656 83.3087 29.6936C83.4243 29.722 83.5433 29.7358 83.6662 29.7358C83.7807 29.7358 83.8767 29.7209 83.9543 29.6904C84.0319 29.6603 84.09 29.6171 84.1289 29.5611C84.1676 29.5051 84.1871 29.4392 84.1871 29.3637C84.1871 29.2883 84.1711 29.2245 84.1385 29.1728C84.1063 29.1211 84.0507 29.073 83.972 29.029C83.8934 28.9847 83.7839 28.9378 83.6436 28.8881C83.5444 28.8515 83.4576 28.8121 83.3832 28.77C83.3088 28.728 83.2468 28.68 83.1972 28.6261C83.1477 28.5723 83.1104 28.5108 83.0856 28.4417C83.0608 28.3727 83.0484 28.2929 83.0484 28.2022C83.0484 28.0793 83.0796 27.9742 83.1423 27.8869C83.2047 27.7995 83.2915 27.7321 83.4028 27.6846C83.5136 27.6371 83.6415 27.6134 83.7861 27.6134C83.9133 27.6134 84.0299 27.6253 84.1354 27.649C84.241 27.6727 84.337 27.7041 84.4235 27.7429L84.3328 27.992C84.2531 27.9576 84.1663 27.9284 84.0724 27.9046C83.9785 27.8809 83.8811 27.869 83.7798 27.869C83.6827 27.869 83.6016 27.883 83.5371 27.9112C83.4722 27.9392 83.4237 27.9785 83.3915 28.0292C83.3592 28.0798 83.3429 28.1386 83.3429 28.2056C83.3429 28.2832 83.3592 28.3478 83.3915 28.3996C83.4237 28.4515 83.4765 28.4979 83.5498 28.5388C83.6231 28.5798 83.7223 28.6241 83.8474 28.6713C83.9835 28.7211 84.0983 28.7744 84.1921 28.8316C84.286 28.8887 84.3572 28.9572 84.4057 29.037C84.4543 29.1168 84.4783 29.217 84.4783 29.3378Z" fill="#191919"/>
<path d="M87.2225 29.3378C87.2225 29.476 87.1892 29.5929 87.1222 29.6889C87.0552 29.7849 86.9599 29.8586 86.8359 29.9104C86.7119 29.9621 86.5656 29.988 86.3976 29.988C86.3112 29.988 86.2286 29.9837 86.15 29.9752C86.0713 29.9664 85.9994 29.954 85.9349 29.938C85.8701 29.9217 85.813 29.9019 85.7634 29.8782V29.6001C85.841 29.6345 85.9374 29.6656 86.0529 29.6936C86.1684 29.722 86.2874 29.7358 86.4104 29.7358C86.5248 29.7358 86.6208 29.7209 86.6984 29.6904C86.776 29.6603 86.8341 29.6171 86.8731 29.5611C86.9117 29.5051 86.9312 29.4392 86.9312 29.3637C86.9312 29.2883 86.9152 29.2245 86.8827 29.1728C86.8504 29.1211 86.7948 29.073 86.7162 29.029C86.6375 28.9847 86.528 28.9378 86.3878 28.8881C86.2885 28.8515 86.2018 28.8121 86.1273 28.77C86.0529 28.728 85.991 28.68 85.9414 28.6261C85.8918 28.5723 85.8546 28.5108 85.8298 28.4417C85.805 28.3727 85.7926 28.2929 85.7926 28.2022C85.7926 28.0793 85.8237 27.9742 85.8865 27.8869C85.9488 27.7995 86.0357 27.7321 86.1469 27.6846C86.2578 27.6371 86.3857 27.6134 86.5302 27.6134C86.6574 27.6134 86.774 27.6253 86.8796 27.649C86.9852 27.6727 87.0812 27.7041 87.1676 27.7429L87.0769 27.992C86.9972 27.9576 86.9104 27.9284 86.8165 27.9046C86.7226 27.8809 86.6252 27.869 86.5239 27.869C86.4268 27.869 86.3457 27.883 86.2812 27.9112C86.2164 27.9392 86.1678 27.9785 86.1356 28.0292C86.1034 28.0798 86.0871 28.1386 86.0871 28.2056C86.0871 28.2832 86.1034 28.3478 86.1356 28.3996C86.1678 28.4515 86.2206 28.4979 86.2939 28.5388C86.3673 28.5798 86.4665 28.6241 86.5915 28.6713C86.7276 28.7211 86.8424 28.7744 86.9362 28.8316C87.0302 28.8887 87.1013 28.9572 87.1499 29.037C87.1984 29.1168 87.2225 29.217 87.2225 29.3378Z" fill="#191919"/>
<path d="M91.4768 28.7352H92.2757V29.8674C92.1506 29.9085 92.0245 29.9386 91.8973 29.958C91.7698 29.9775 91.6256 29.9871 91.4636 29.9871C91.2241 29.9871 91.0226 29.9392 90.8585 29.8433C90.6948 29.7472 90.5701 29.6101 90.4851 29.4323C90.3997 29.2544 90.3572 29.0436 90.3572 28.7998C90.3572 28.5584 90.4047 28.349 90.4996 28.1722C90.5946 27.9954 90.731 27.8579 90.9088 27.7596C91.0867 27.6615 91.3017 27.6124 91.5544 27.6124C91.6837 27.6124 91.8059 27.6243 91.9214 27.648C92.0369 27.6717 92.1442 27.7052 92.2434 27.7483L92.1333 28.0007C92.0514 27.9641 91.9593 27.9327 91.8569 27.9068C91.7542 27.881 91.6482 27.8681 91.5381 27.8681C91.3549 27.8681 91.1972 27.9058 91.0658 27.9813C90.934 28.0569 90.8337 28.1641 90.765 28.3033C90.6959 28.4423 90.6612 28.6078 90.6612 28.7998C90.6612 28.9832 90.691 29.1455 90.7505 29.2868C90.8097 29.428 90.9028 29.5382 91.03 29.6168C91.1576 29.6955 91.3244 29.7348 91.5317 29.7348C91.633 29.7348 91.7191 29.7295 91.7903 29.7185C91.8615 29.7079 91.9264 29.6948 91.9844 29.6799V28.994H91.4768V28.7352Z" fill="#191919"/>
<path d="M94.4379 27.6456C94.6296 27.6456 94.7876 27.6699 94.9116 27.7185C95.0356 27.767 95.128 27.8398 95.1883 27.9369C95.2489 28.034 95.279 28.1559 95.279 28.3024C95.279 28.4253 95.2563 28.5278 95.2109 28.6097C95.1656 28.6917 95.1078 28.7569 95.038 28.8054C94.9679 28.8539 94.8938 28.8924 94.8163 28.9204L95.4505 29.9557H95.1107L94.5509 29.0012H94.0918V29.9557H93.8006V27.6456H94.4379ZM94.4216 27.8981H94.0917V28.7553H94.4379C94.6253 28.7553 94.7624 28.7181 94.8485 28.6437C94.935 28.5693 94.9782 28.4598 94.9782 28.3154C94.9782 28.2139 94.958 28.1332 94.9184 28.0727C94.8783 28.0123 94.8174 27.968 94.7356 27.94C94.6534 27.9121 94.5488 27.8981 94.4216 27.8981Z" fill="#191919"/>
<path d="M98.7979 28.7969C98.7979 28.9759 98.7753 29.1383 98.7299 29.2837C98.6846 29.4293 98.6173 29.5551 98.5276 29.6607C98.4384 29.7663 98.3271 29.8474 98.1946 29.9034C98.0617 29.9594 97.9083 29.9874 97.7333 29.9874C97.5522 29.9874 97.395 29.959 97.261 29.9016C97.1275 29.8446 97.0162 29.7638 96.928 29.6589C96.8394 29.5544 96.7735 29.4286 96.7306 29.2821C96.6874 29.1355 96.6658 28.9727 96.6658 28.7935C96.6658 28.5563 96.7048 28.3493 96.7824 28.1725C96.86 27.9956 96.9779 27.8575 97.1367 27.7583C97.295 27.6591 97.4952 27.6095 97.7368 27.6095C97.9675 27.6095 98.1616 27.6585 98.3189 27.7567C98.4766 27.8548 98.5956 27.9928 98.6764 28.1709C98.7576 28.3487 98.7979 28.5574 98.7979 28.7969ZM96.9733 28.7969C96.9733 28.9911 97.0002 29.1581 97.0541 29.2984C97.108 29.4385 97.1916 29.5463 97.305 29.6217C97.418 29.6976 97.5608 29.7351 97.7333 29.7351C97.9083 29.7351 98.0511 29.6976 98.162 29.6217C98.2733 29.5463 98.3558 29.4385 98.4097 29.2984C98.4635 29.1581 98.4904 28.9911 98.4904 28.7969C98.4904 28.5057 98.4302 28.2775 98.3094 28.1126C98.1886 27.9477 97.9976 27.8651 97.7368 27.8651C97.5618 27.8651 97.418 27.9023 97.305 27.9767C97.1916 28.0512 97.108 28.1579 97.0541 28.297C97.0002 28.436 96.9733 28.6027 96.9733 28.7969Z" fill="#191919"/>
<path d="M102.898 27.6457L102.284 29.9557H101.989L101.539 28.4417C101.527 28.3963 101.513 28.3499 101.501 28.3024C101.488 28.2551 101.476 28.2098 101.465 28.1665C101.454 28.1235 101.445 28.0863 101.438 28.0549C101.43 28.0238 101.425 28.0005 101.423 27.9855C101.421 28.0005 101.417 28.0237 101.412 28.0549C101.406 28.0863 101.398 28.1235 101.387 28.1665C101.377 28.2098 101.365 28.2556 101.353 28.3042C101.342 28.3527 101.328 28.4018 101.313 28.4514L100.876 29.9557H100.582L99.9705 27.6457H100.274L100.634 29.0564C100.646 29.1059 100.658 29.1551 100.669 29.2036C100.68 29.2521 100.69 29.2996 100.7 29.3458C100.71 29.3922 100.718 29.437 100.724 29.4803C100.731 29.5235 100.737 29.5653 100.744 29.6064C100.75 29.5632 100.757 29.5189 100.764 29.4739C100.772 29.4286 100.781 29.3814 100.792 29.3329C100.803 29.2844 100.815 29.2355 100.828 29.1857C100.841 29.1361 100.854 29.0875 100.867 29.0401L101.274 27.6457H101.575L101.999 29.0498C102.014 29.0996 102.028 29.1497 102.041 29.2004C102.054 29.251 102.066 29.3001 102.076 29.3474C102.087 29.3949 102.097 29.4406 102.104 29.4852C102.111 29.5291 102.119 29.5695 102.125 29.6064C102.132 29.5525 102.14 29.4958 102.151 29.4363C102.162 29.3771 102.175 29.3151 102.19 29.2505C102.205 29.1856 102.221 29.1199 102.238 29.0531L102.594 27.6456L102.898 27.6457Z" fill="#191919"/>
<path d="M103.982 29.7799C103.982 29.7002 104.002 29.6439 104.041 29.6116C104.079 29.579 104.126 29.5631 104.18 29.5631C104.236 29.5631 104.284 29.5791 104.324 29.6116C104.363 29.6439 104.384 29.7002 104.384 29.7799C104.384 29.8575 104.363 29.9135 104.324 29.9482C104.284 29.9826 104.236 29.9999 104.18 29.9999C104.126 29.9999 104.079 29.9825 104.041 29.9482C104.002 29.9135 103.982 29.8575 103.982 29.7799Z" fill="#191919"/>
<path d="M105.82 29.7799C105.82 29.7002 105.84 29.6439 105.879 29.6116C105.917 29.579 105.964 29.5631 106.018 29.5631C106.074 29.5631 106.122 29.5791 106.162 29.6116C106.201 29.6439 106.221 29.7002 106.221 29.7799C106.221 29.8575 106.201 29.9135 106.162 29.9482C106.122 29.9826 106.074 29.9999 106.018 29.9999C105.964 29.9999 105.917 29.9825 105.879 29.9482C105.84 29.9135 105.82 29.8575 105.82 29.7799Z" fill="#191919"/>
<path d="M107.658 29.7799C107.658 29.7002 107.677 29.6439 107.716 29.6116C107.755 29.579 107.801 29.5631 107.856 29.5631C107.912 29.5631 107.959 29.5791 108 29.6116C108.039 29.6439 108.059 29.7002 108.059 29.7799C108.059 29.8575 108.039 29.9135 108 29.9482C107.959 29.9826 107.912 29.9999 107.856 29.9999C107.801 29.9999 107.755 29.9825 107.716 29.9482C107.677 29.9135 107.658 29.8575 107.658 29.7799Z" fill="#191919"/>
<path d="M109.496 29.7802C109.496 29.7004 109.515 29.6441 109.554 29.6119C109.593 29.5793 109.639 29.5634 109.693 29.5634C109.749 29.5634 109.797 29.5793 109.837 29.6119C109.877 29.6441 109.897 29.7004 109.897 29.7802C109.897 29.8578 109.877 29.9137 109.837 29.9484C109.797 29.9828 109.749 30.0001 109.693 30.0001C109.639 30.0001 109.593 29.9828 109.554 29.9484C109.515 29.9137 109.496 29.8578 109.496 29.7802Z" fill="#191919"/>
<defs>
<linearGradient id="paint0_linear_1_110" x1="-0.79675" y1="0.342424" x2="21.6099" y2="36.5378" gradientUnits="userSpaceOnUse">
<stop stop-color="#DCE35B"/>
<stop offset="1" stop-color="#FF5E62"/>
</linearGradient>
<linearGradient id="paint1_linear_1_110" x1="1.4671" y1="-1.05925" x2="23.8738" y2="35.1361" gradientUnits="userSpaceOnUse">
<stop stop-color="#DCE35B"/>
<stop offset="1" stop-color="#FF5E62"/>
</linearGradient>
<linearGradient id="paint2_linear_1_110" x1="-7.18815" y1="4.29919" x2="15.2185" y2="40.4946" gradientUnits="userSpaceOnUse">
<stop stop-color="#DCE35B"/>
<stop offset="1" stop-color="#FF5E62"/>
</linearGradient>
</defs>
</svg>
