<svg width="309" height="90" viewBox="0 0 309 90" fill="none" xmlns="http://www.w3.org/2000/svg">
<path d="M40.4645 11.004C36.684 4.29013 29.8574 0.177547 22.1996 0.00593471C21.8404 -0.00197824 21.4781 -0.00197824 21.1158 0.00593471C13.4596 0.177547 6.63283 4.29013 2.85242 11.004C-0.98363 17.8196 -0.948684 25.9224 2.94613 32.6792L19.8254 61.9645L12.9446 73.9018C11.1346 77.0434 11.1077 80.8175 12.8747 83.9973C14.6068 87.1135 17.7501 89.0458 21.2842 89.165C21.4082 89.1698 21.5337 89.1714 21.6593 89.1714C21.7848 89.1714 21.9088 89.1698 22.0343 89.165C25.5684 89.0458 28.7117 87.1135 30.4422 83.9973C32.2093 80.8175 32.1822 77.0435 30.3723 73.9018L23.4932 61.9645L40.3709 32.6792C44.2658 25.9224 44.3006 17.8181 40.4645 11.004ZM27.6184 75.4892C28.8674 77.6552 28.8833 80.2581 27.6644 82.4542C26.479 84.5867 24.3353 85.9073 21.9278 85.9883C21.7482 85.9947 21.5671 85.9947 21.3907 85.9883C18.9832 85.9073 16.838 84.5867 15.6541 82.4542C14.4337 80.2581 14.4511 77.6552 15.6986 75.4892L21.6593 65.1474L27.6184 75.4892ZM37.6169 31.0932L21.6593 58.7831L5.7 31.0932C2.37088 25.3169 2.34228 18.3901 5.62211 12.5629C8.84639 6.83579 14.6656 3.33028 21.1872 3.18249C21.3446 3.17927 21.5018 3.17771 21.6592 3.17771C21.8165 3.17771 21.9738 3.17927 22.1296 3.18249C28.6528 3.33028 34.4705 6.83579 37.6947 12.5629C40.9746 18.3901 40.9461 25.3169 37.6169 31.0932Z" fill="url(#paint0_linear_109_89)"/>
<path d="M28.5548 20.2059C28.1146 19.4034 27.4392 18.7646 26.5255 18.291C25.6118 17.8175 24.4454 17.5807 23.0248 17.5807H17.3168V35.3404H19.4477V28.2864H23.0248C24.4613 28.2864 25.6325 28.0496 26.5383 27.5761C27.4425 27.1025 28.1147 26.4605 28.5549 25.6485C28.995 24.8365 29.2144 23.9323 29.2144 22.9344C29.2144 21.919 28.995 21.01 28.5548 20.2059ZM26.1314 25.5086C25.5323 26.1601 24.4866 26.486 22.9993 26.486H19.4477V19.3557H22.9993C24.4866 19.3557 25.5323 19.6736 26.1314 20.3076C26.732 20.9416 27.0324 21.8172 27.0324 22.9344C27.0324 23.9991 26.732 24.8571 26.1314 25.5086Z" fill="url(#paint1_linear_109_89)"/>
<path d="M25.6047 77.7934V78.332H23.9488C22.8826 78.4385 22.0356 79.2854 21.9291 80.3501V82.0076H21.3904V80.3501C21.2839 79.2854 20.437 78.4385 19.3707 78.332H17.7148V77.7934H19.3707C20.437 77.6869 21.284 76.8399 21.3904 75.7752V74.1178H21.9291V75.7752C22.0356 76.8399 22.8826 77.6869 23.9488 77.7934H25.6047Z" fill="url(#paint2_linear_109_89)"/>
<path d="M67.6853 62.3576V9.99304H85.5641C89.7031 9.99304 93.1312 10.6919 95.85 12.0874C98.5676 13.4843 100.575 15.3544 101.872 17.698C103.168 20.0428 103.817 22.7102 103.817 25.7024C103.817 28.5451 103.181 31.1515 101.909 33.5197C100.638 35.8889 98.6552 37.7965 95.9623 39.2423C93.2692 40.6895 89.8023 41.4117 85.5641 41.4117H75.1659V62.3576H67.6853ZM75.1659 35.2028H85.2649C89.1549 35.2028 91.9472 34.3308 93.6432 32.5847C95.3381 30.8395 96.1867 28.5205 96.1867 25.6277C96.1867 22.6355 95.3382 20.3165 93.6432 18.6707C91.9472 17.025 89.1549 16.2021 85.2649 16.2021H75.1659V35.2028Z" fill="#191919"/>
<path d="M110.547 17.5482C109.1 17.5482 107.916 17.0992 106.994 16.2015C106.071 15.3039 105.61 14.1573 105.61 12.7606C105.61 11.4139 106.071 10.3048 106.994 9.43162C107.916 8.55961 109.1 8.12256 110.547 8.12256C111.943 8.12256 113.115 8.55961 114.063 9.43162C115.01 10.3048 115.484 11.4139 115.484 12.7606C115.484 14.1573 115.01 15.3039 114.063 16.2015C113.115 17.0994 111.943 17.5482 110.547 17.5482ZM106.807 62.3571V24.6547H114.288V62.3571H106.807Z" fill="#191919"/>
<path d="M119.749 62.3558V24.6533H126.482L126.931 31.0866C128.128 28.7932 129.811 26.998 131.98 25.7006C134.15 24.4043 136.68 23.7555 139.573 23.7555C142.614 23.7555 145.208 24.3541 147.353 25.551C149.497 26.748 151.155 28.5561 152.327 30.9744C153.499 33.3941 154.085 36.4236 154.085 40.0635V62.3559H146.605V40.8116C146.605 37.3215 145.831 34.6656 144.286 32.8447C142.739 31.0248 140.495 30.1143 137.553 30.1143C135.608 30.1143 133.862 30.5888 132.317 31.5357C130.77 32.4835 129.536 33.8546 128.614 35.65C127.69 37.4454 127.23 39.6405 127.23 42.233V62.3559L119.749 62.3558Z" fill="#191919"/>
<path d="M171.062 62.3576V16.1271H155.577V9.99304H194.103V16.1271H178.543V62.3576H171.062Z" fill="#191919"/>
<path d="M206.077 63.2548C203.184 63.2548 200.64 62.6564 198.447 61.4596C196.251 60.2626 194.581 58.4673 193.435 56.0733C192.287 53.6796 191.714 50.6627 191.714 47.0219V24.6547H199.195V46.1989C199.195 49.7897 199.954 52.4709 201.476 54.2407C202.997 56.0115 205.228 56.8963 208.172 56.8963C210.116 56.8963 211.862 56.4229 213.408 55.4749C214.953 54.5281 216.188 53.1687 217.111 51.398C218.033 49.6284 218.495 47.4461 218.495 44.8524V24.6547H225.976V62.3571H219.243L218.794 55.9238C217.646 58.2181 215.963 60.0136 213.745 61.3098C211.525 62.6061 208.969 63.2548 206.077 63.2548Z" fill="#191919"/>
<path d="M247.593 63.2569C244.051 63.2569 240.909 62.3967 238.167 60.6761C235.424 58.9556 233.305 56.5991 231.809 53.6069C230.312 50.6145 229.564 47.2482 229.564 43.5079C229.564 39.6681 230.312 36.2644 231.809 33.2969C233.305 30.3302 235.437 27.9983 238.205 26.3024C240.972 24.6076 244.126 23.7588 247.667 23.7588C250.709 23.7588 253.34 24.3456 255.56 25.5168C257.778 26.6891 259.512 28.3221 260.759 30.4167V8.49841H268.239V62.3591H261.507L260.834 56.4494C260.035 57.6464 259.025 58.7567 257.804 59.7783C256.581 60.801 255.135 61.6367 253.465 62.2842C251.794 62.9318 249.837 63.2569 247.593 63.2569ZM248.939 56.7488C251.283 56.7488 253.34 56.1878 255.111 55.0656C256.88 53.9437 258.252 52.3984 259.225 50.4277C260.197 48.4582 260.684 46.152 260.684 43.508C260.684 40.8641 260.197 38.5463 259.225 36.551C258.252 34.5571 256.88 33.0106 255.111 31.9131C253.34 30.8166 251.283 30.2674 248.939 30.2674C246.645 30.2674 244.6 30.8166 242.805 31.9131C241.01 33.0106 239.626 34.5571 238.653 36.551C237.681 38.5464 237.194 40.8407 237.194 43.4332C237.194 46.1263 237.681 48.4582 238.653 50.4277C239.626 52.3984 241.01 53.9437 242.805 55.0656C244.6 56.1878 246.645 56.7488 248.939 56.7488Z" fill="#191919"/>
<path d="M306.05 32.7318C304.632 30.0388 302.599 27.8707 299.955 26.2271C297.312 24.5794 294.143 23.7555 290.454 23.7555C286.765 23.7555 283.511 24.5916 280.691 26.2639C277.875 27.9362 275.707 30.2519 274.183 33.2195C272.662 36.187 271.904 39.6422 271.904 43.5811C271.904 47.52 272.687 50.9629 274.261 53.9059C275.83 56.8487 277.999 59.14 280.769 60.7877C283.536 62.4313 286.716 63.2551 290.307 63.2551C293.299 63.2551 295.914 62.7304 298.16 61.6852C300.402 60.6359 302.3 59.2056 303.845 57.3816C305.39 55.5617 306.489 53.5042 307.136 51.2089H299.656C298.955 53.0083 297.824 54.4264 296.254 55.4757C294.68 56.5209 292.701 57.0455 290.307 57.0455C288.262 57.0455 286.401 56.5496 284.733 55.5495C283.06 54.5535 281.728 53.1066 280.728 51.2089C279.859 49.557 279.367 47.561 279.257 45.2247H308.034C308.132 44.5771 308.186 43.9541 308.186 43.3557V41.7121C308.186 38.4209 307.473 35.4288 306.05 32.7318ZM279.343 39.9907C279.54 38.2118 280.003 36.6789 280.728 35.3877C281.728 33.6211 283.073 32.2726 284.77 31.3505C286.466 30.4282 288.335 29.9652 290.381 29.9652C293.27 29.9652 295.693 30.8628 297.635 32.6581C299.582 34.4533 300.627 36.9002 300.779 39.9908L279.343 39.9907Z" fill="#191919"/>
<path d="M83.3369 81.1002H82.5485V78.1833H79.3429V81.1002H78.5544V74.8462H79.3429V77.4916H82.5485V74.8462H83.3369V81.1002Z" fill="#191919"/>
<path d="M91.1691 81.1002H87.6748V74.8462H91.1691V75.5383H88.4632V77.4916H91.0118V78.1745H88.4632V80.4085H91.1691V81.1002Z" fill="#191919"/>
<path d="M95.1674 81.1002V74.8462H95.9558V80.399H98.6886V81.1002H95.1674Z" fill="#191919"/>
<path d="M104.042 74.8462C104.859 74.8462 105.455 75.0068 105.829 75.3278C106.202 75.6491 106.389 76.1018 106.389 76.6855C106.389 76.9426 106.347 77.1891 106.262 77.4261C106.177 77.6625 106.039 77.8739 105.846 78.0611C105.653 78.2477 105.396 78.3953 105.075 78.5032C104.754 78.6111 104.359 78.6652 103.892 78.6652H103.175V81.1002H102.386V74.8462H104.042ZM103.972 75.5205H103.175V77.9909H103.805C104.202 77.9909 104.532 77.9482 104.795 77.8639C105.058 77.779 105.253 77.6433 105.382 77.4562C105.51 77.2696 105.575 77.0245 105.575 76.7205C105.575 76.3177 105.446 76.017 105.189 75.8184C104.932 75.6198 104.526 75.5205 103.972 75.5205Z" fill="#191919"/>
<path d="M112.075 81.1002H109.815V80.6446L110.551 80.4786V75.4769L109.815 75.3018V74.8462H112.075V75.3018L111.339 75.4769V80.4786L112.075 80.6446V81.1002Z" fill="#191919"/>
<path d="M120.864 81.1003H119.944L116.599 75.9062H116.564C116.576 76.0405 116.585 76.1998 116.595 76.3834C116.603 76.5675 116.612 76.7632 116.621 76.9705C116.629 77.1777 116.634 77.3896 116.634 77.6055V81.1003H115.907V74.8463H116.817L120.155 80.023H120.19C120.184 79.9299 120.176 79.7899 120.168 79.6024C120.159 79.4154 120.15 79.2111 120.142 78.9895C120.133 78.7673 120.128 78.5631 120.128 78.376V74.8462H120.864V81.1003Z" fill="#191919"/>
<path d="M127.913 77.7954H130.076V80.8605C129.737 80.9717 129.395 81.0532 129.051 81.1059C128.706 81.1587 128.315 81.1846 127.877 81.1846C127.229 81.1846 126.683 81.055 126.239 80.7952C125.796 80.5352 125.458 80.1641 125.228 79.6825C124.997 79.2009 124.882 78.6303 124.882 77.9703C124.882 77.3167 125.01 76.7498 125.267 76.2711C125.524 75.7924 125.894 75.4203 126.375 75.1541C126.857 74.8884 127.439 74.7556 128.123 74.7556C128.473 74.7556 128.804 74.7877 129.116 74.852C129.429 74.9162 129.72 75.0068 129.988 75.1234L129.69 75.8069C129.468 75.7077 129.219 75.6228 128.942 75.5527C128.664 75.4827 128.377 75.4477 128.079 75.4477C127.583 75.4477 127.156 75.5498 126.8 75.7541C126.443 75.9589 126.172 76.249 125.986 76.626C125.799 77.0025 125.705 77.4505 125.705 77.9703C125.705 78.4667 125.785 78.9061 125.946 79.2888C126.107 79.671 126.359 79.9694 126.703 80.1822C127.048 80.3952 127.5 80.5016 128.061 80.5016C128.336 80.5016 128.569 80.4873 128.761 80.4575C128.954 80.4288 129.13 80.3932 129.287 80.3529V78.4959H127.913V77.7954Z" fill="#191919"/>
<path d="M140.735 77.9204L142.365 74.8462H143.215L141.129 78.6739V81.1002H140.341V78.7089L138.257 74.8462H139.115L140.735 77.9204Z" fill="#191919"/>
<path d="M151.973 77.9623C151.973 78.4467 151.912 78.8865 151.789 79.2802C151.666 79.6744 151.484 80.015 151.241 80.3008C150.999 80.5867 150.698 80.8063 150.34 80.9579C149.98 81.1095 149.565 81.1852 149.091 81.1852C148.6 81.1852 148.175 81.1085 147.812 80.9531C147.45 80.7986 147.149 80.58 146.91 80.296C146.671 80.013 146.492 79.6725 146.376 79.2759C146.259 78.8788 146.201 78.4381 146.201 77.9531C146.201 77.311 146.306 76.7504 146.516 76.2717C146.726 75.793 147.046 75.419 147.475 75.1504C147.904 74.8818 148.446 74.7476 149.1 74.7476C149.725 74.7476 150.25 74.8803 150.676 75.1461C151.103 75.4118 151.425 75.7854 151.644 76.2674C151.864 76.7489 151.973 77.3138 151.973 77.9623ZM147.033 77.9623C147.033 78.4879 147.106 78.9402 147.252 79.32C147.398 79.6994 147.624 79.991 147.931 80.1953C148.237 80.4006 148.624 80.5023 149.091 80.5023C149.565 80.5023 149.951 80.4006 150.251 80.1953C150.553 79.991 150.776 79.6994 150.922 79.32C151.068 78.9402 151.141 78.488 151.141 77.9623C151.141 77.1739 150.977 76.5561 150.65 76.1096C150.323 75.6632 149.806 75.4396 149.1 75.4396C148.626 75.4396 148.237 75.5403 147.931 75.7418C147.624 75.9433 147.398 76.2324 147.252 76.6088C147.106 76.9853 147.033 77.4366 147.033 77.9623Z" fill="#191919"/>
<path d="M160.735 78.893C160.735 79.3251 160.648 79.715 160.472 80.0622C160.298 80.4094 160.03 80.6837 159.671 80.8852C159.312 81.0867 158.855 81.1874 158.301 81.1874C157.524 81.1874 156.933 80.9764 156.526 80.5524C156.121 80.1294 155.918 79.5702 155.918 78.8752V74.8462H156.707V78.9016C156.707 79.4095 156.842 79.8032 157.113 80.0833C157.385 80.3643 157.795 80.5045 158.344 80.5045C158.724 80.5045 159.032 80.4363 159.269 80.2983C159.505 80.1612 159.678 79.9721 159.79 79.7295C159.901 79.4872 159.956 79.2082 159.956 78.8931V74.8463H160.735V78.893Z" fill="#191919"/>
<path d="M166.739 74.8462C167.258 74.8462 167.686 74.9119 168.022 75.0434C168.357 75.1749 168.608 75.3719 168.771 75.6348C168.935 75.8976 169.016 76.2276 169.016 76.6242C169.016 76.957 168.955 77.2346 168.832 77.4562C168.709 77.6783 168.553 77.8547 168.364 77.9861C168.174 78.1175 167.974 78.2215 167.764 78.2974L169.481 81.1002H168.561L167.045 78.5161H165.802V81.1002H165.014V74.8462H166.739ZM166.695 75.5297H165.802V77.8504H166.739C167.247 77.8504 167.618 77.7498 167.851 77.5483C168.085 77.3468 168.202 77.0505 168.202 76.6595C168.202 76.3847 168.148 76.1661 168.04 76.0025C167.932 75.839 167.767 75.719 167.545 75.6432C167.323 75.5675 167.04 75.5297 166.695 75.5297Z" fill="#191919"/>
<path d="M179.781 74.8463C180.563 74.8463 181.155 74.9619 181.555 75.1921C181.955 75.4232 182.154 75.8242 182.154 76.3968C182.154 76.6419 182.109 76.8596 182.019 77.0491C181.928 77.2389 181.793 77.3968 181.616 77.5219C181.438 77.6475 181.22 77.7338 180.963 77.7804V77.8246C181.226 77.8653 181.463 77.9411 181.677 78.0519C181.89 78.1632 182.058 78.3209 182.181 78.5252C182.304 78.7296 182.364 78.9952 182.364 79.3223C182.364 79.7017 182.277 80.0239 182.102 80.2897C181.927 80.5554 181.677 80.7567 181.353 80.894C181.029 81.0321 180.642 81.1002 180.193 81.1002H177.994V74.8462L179.781 74.8463ZM179.938 77.5091C180.476 77.5091 180.844 77.4233 181.042 77.2505C181.24 77.0783 181.34 76.8233 181.34 76.4842C181.34 76.1398 181.219 75.8928 180.976 75.7442C180.734 75.5956 180.347 75.5206 179.816 75.5206H178.783V77.509L179.938 77.5091ZM178.783 78.166V80.4345H180.044C180.598 80.4345 180.984 80.3261 181.2 80.1102C181.415 79.8944 181.524 79.611 181.524 79.2608C181.524 79.0387 181.476 78.846 181.379 78.6825C181.283 78.5194 181.122 78.3923 180.898 78.3017C180.672 78.2111 180.367 78.166 179.982 78.166H178.783Z" fill="#191919"/>
<path d="M191.072 78.893C191.072 79.3251 190.984 79.715 190.809 80.0622C190.634 80.4094 190.367 80.6837 190.008 80.8852C189.648 81.0867 189.192 81.1874 188.637 81.1874C187.86 81.1874 187.269 80.9764 186.863 80.5524C186.457 80.1294 186.255 79.5702 186.255 78.8752V74.8462H187.043V78.9016C187.043 79.4095 187.178 79.8032 187.45 80.0833C187.721 80.3643 188.132 80.5045 188.68 80.5045C189.06 80.5045 189.368 80.4363 189.605 80.2983C189.841 80.1612 190.015 79.9721 190.126 79.7295C190.237 79.4872 190.293 79.2082 190.293 78.8931V74.8463H191.072V78.893Z" fill="#191919"/>
<path d="M198.891 79.4268C198.891 79.8009 198.801 80.1174 198.62 80.3774C198.438 80.6374 198.181 80.8369 197.845 80.9769C197.509 81.1169 197.113 81.187 196.658 81.187C196.424 81.187 196.201 81.1755 195.988 81.1525C195.775 81.1285 195.58 81.0949 195.405 81.0518C195.23 81.0077 195.076 80.954 194.941 80.8898V80.1369C195.151 80.23 195.412 80.3143 195.725 80.3901C196.038 80.4668 196.36 80.5042 196.693 80.5042C197.003 80.5042 197.262 80.4638 197.473 80.3814C197.683 80.3 197.84 80.1828 197.945 80.0313C198.05 79.8797 198.103 79.7014 198.103 79.497C198.103 79.2927 198.06 79.12 197.971 78.9801C197.884 78.8401 197.733 78.71 197.521 78.5907C197.308 78.4708 197.011 78.3437 196.632 78.2094C196.363 78.1101 196.128 78.0036 195.927 77.8895C195.725 77.7759 195.557 77.6458 195.423 77.5001C195.289 77.3543 195.188 77.1878 195.121 77.0009C195.054 76.8139 195.02 76.598 195.02 76.3524C195.02 76.0196 195.105 75.7352 195.274 75.4987C195.443 75.2622 195.678 75.0795 195.979 74.951C196.28 74.8225 196.626 74.7583 197.017 74.7583C197.362 74.7583 197.677 74.7904 197.963 74.8547C198.249 74.9189 198.509 75.0038 198.743 75.1089L198.497 75.7832C198.281 75.6901 198.047 75.611 197.792 75.5467C197.538 75.4825 197.274 75.4504 197 75.4504C196.737 75.4504 196.518 75.4882 196.343 75.5645C196.168 75.6402 196.036 75.7468 195.949 75.8839C195.862 76.021 195.817 76.1803 195.817 76.3616C195.817 76.5717 195.862 76.7466 195.949 76.8868C196.036 77.0273 196.179 77.1529 196.378 77.2637C196.576 77.3746 196.845 77.4945 197.183 77.6224C197.552 77.7572 197.862 77.9016 198.116 78.0565C198.371 78.211 198.563 78.3965 198.695 78.6123C198.826 78.8286 198.891 79.0997 198.891 79.4268Z" fill="#191919"/>
<path d="M204.537 81.1002H202.277V80.6446L203.013 80.4786V75.4769L202.277 75.3018V74.8462H204.537V75.3018L203.802 75.4769V80.4786L204.537 80.6446V81.1002Z" fill="#191919"/>
<path d="M213.341 81.1003H212.421L209.075 75.9062H209.041C209.052 76.0405 209.062 76.1998 209.072 76.3834C209.08 76.5675 209.089 76.7632 209.097 76.9705C209.106 77.1777 209.111 77.3896 209.111 77.6055V81.1003H208.384V74.8463H209.294L212.632 80.023H212.667C212.661 79.9299 212.653 79.7899 212.644 79.6024C212.636 79.4154 212.627 79.2111 212.619 78.9895C212.61 78.7673 212.605 78.5631 212.605 78.376V74.8462H213.341V81.1003Z" fill="#191919"/>
<path d="M221.159 81.1002H217.664V74.8462H221.159V75.5383H218.453V77.4916H221.001V78.1745H218.453V80.4085H221.159V81.1002Z" fill="#191919"/>
<path d="M228.709 79.4268C228.709 79.8009 228.619 80.1174 228.437 80.3774C228.256 80.6374 227.998 80.8369 227.662 80.9769C227.327 81.1169 226.93 81.187 226.476 81.187C226.242 81.187 226.018 81.1755 225.805 81.1525C225.592 81.1285 225.397 81.0949 225.223 81.0518C225.047 81.0077 224.893 80.954 224.759 80.8898V80.1369C224.969 80.23 225.23 80.3143 225.542 80.3901C225.855 80.4668 226.177 80.5042 226.51 80.5042C226.82 80.5042 227.08 80.4638 227.29 80.3814C227.5 80.3 227.657 80.1828 227.763 80.0313C227.867 79.8797 227.92 79.7014 227.92 79.497C227.92 79.2927 227.877 79.12 227.789 78.9801C227.702 78.8401 227.551 78.71 227.338 78.5907C227.125 78.4708 226.829 78.3437 226.449 78.2094C226.18 78.1101 225.945 78.0036 225.744 77.8895C225.542 77.7759 225.375 77.6458 225.24 77.5001C225.106 77.3543 225.005 77.1878 224.938 77.0009C224.871 76.8139 224.838 76.598 224.838 76.3524C224.838 76.0196 224.922 75.7352 225.092 75.4987C225.261 75.2622 225.496 75.0795 225.797 74.951C226.097 74.8225 226.443 74.7583 226.835 74.7583C227.179 74.7583 227.495 74.7904 227.78 74.8547C228.066 74.9189 228.326 75.0038 228.56 75.1089L228.315 75.7832C228.099 75.6901 227.864 75.611 227.61 75.5467C227.356 75.4825 227.092 75.4504 226.818 75.4504C226.555 75.4504 226.335 75.4882 226.16 75.5645C225.985 75.6402 225.853 75.7468 225.766 75.8839C225.679 76.021 225.635 76.1803 225.635 76.3616C225.635 76.5717 225.679 76.7466 225.766 76.8868C225.853 77.0273 225.996 77.1529 226.195 77.2637C226.393 77.3746 226.662 77.4945 227.001 77.6224C227.369 77.7572 227.68 77.9016 227.934 78.0565C228.188 78.211 228.381 78.3965 228.512 78.6123C228.644 78.8286 228.709 79.0997 228.709 79.4268Z" fill="#191919"/>
<path d="M236.141 79.4268C236.141 79.8009 236.051 80.1174 235.869 80.3774C235.688 80.6374 235.43 80.8369 235.094 80.9769C234.759 81.1169 234.362 81.187 233.908 81.187C233.674 81.187 233.45 81.1755 233.237 81.1525C233.024 81.1285 232.83 81.0949 232.655 81.0518C232.48 81.0077 232.325 80.954 232.191 80.8898V80.1369C232.401 80.23 232.662 80.3143 232.974 80.3901C233.287 80.4668 233.609 80.5042 233.942 80.5042C234.252 80.5042 234.512 80.4638 234.722 80.3814C234.932 80.3 235.089 80.1828 235.195 80.0313C235.299 79.8797 235.352 79.7014 235.352 79.497C235.352 79.2927 235.309 79.12 235.221 78.9801C235.134 78.8401 234.983 78.71 234.77 78.5907C234.557 78.4708 234.261 78.3437 233.881 78.2094C233.612 78.1101 233.377 78.0036 233.176 77.8895C232.975 77.7759 232.807 77.6458 232.672 77.5001C232.538 77.3543 232.437 77.1878 232.37 77.0009C232.303 76.8139 232.27 76.598 232.27 76.3524C232.27 76.0196 232.354 75.7352 232.524 75.4987C232.693 75.2622 232.928 75.0795 233.229 74.951C233.529 74.8225 233.875 74.7583 234.267 74.7583C234.611 74.7583 234.927 74.7904 235.213 74.8547C235.498 74.9189 235.758 75.0038 235.992 75.1089L235.747 75.7832C235.531 75.6901 235.296 75.611 235.042 75.5467C234.788 75.4825 234.524 75.4504 234.25 75.4504C233.987 75.4504 233.767 75.4882 233.593 75.5645C233.417 75.6402 233.286 75.7468 233.198 75.8839C233.111 76.021 233.067 76.1803 233.067 76.3616C233.067 76.5717 233.111 76.7466 233.198 76.8868C233.286 77.0273 233.429 77.1529 233.627 77.2637C233.826 77.3746 234.094 77.4945 234.433 77.6224C234.801 77.7572 235.112 77.9016 235.366 78.0565C235.62 78.211 235.813 78.3965 235.944 78.6123C236.076 78.8286 236.141 79.0997 236.141 79.4268Z" fill="#191919"/>
<path d="M247.658 77.7954H249.821V80.8605C249.483 80.9717 249.141 81.0532 248.797 81.1059C248.452 81.1587 248.061 81.1846 247.623 81.1846C246.974 81.1846 246.429 81.055 245.985 80.7952C245.541 80.5352 245.204 80.1641 244.974 79.6825C244.743 79.2009 244.627 78.6303 244.627 77.9703C244.627 77.3167 244.756 76.7498 245.013 76.2711C245.27 75.7924 245.639 75.4203 246.121 75.1541C246.602 74.8884 247.185 74.7556 247.869 74.7556C248.219 74.7556 248.55 74.7877 248.862 74.852C249.175 74.9162 249.466 75.0068 249.734 75.1234L249.436 75.8069C249.214 75.7077 248.965 75.6228 248.688 75.5527C248.41 75.4827 248.123 75.4477 247.824 75.4477C247.328 75.4477 246.902 75.5498 246.546 75.7541C246.189 75.9589 245.918 76.249 245.731 76.626C245.545 77.0025 245.45 77.4505 245.45 77.9703C245.45 78.4667 245.531 78.9061 245.692 79.2888C245.852 79.671 246.105 79.9694 246.449 80.1822C246.794 80.3952 247.246 80.5016 247.807 80.5016C248.082 80.5016 248.315 80.4873 248.507 80.4575C248.7 80.4288 248.876 80.3932 249.033 80.3529V78.4959H247.658V77.7954Z" fill="#191919"/>
<path d="M255.672 74.8462C256.191 74.8462 256.619 74.9119 256.955 75.0434C257.291 75.1749 257.541 75.3719 257.704 75.6348C257.868 75.8976 257.95 76.2276 257.95 76.6242C257.95 76.957 257.888 77.2346 257.765 77.4562C257.643 77.6783 257.486 77.8547 257.297 77.9861C257.107 78.1175 256.907 78.2215 256.697 78.2974L258.414 81.1002H257.494L255.979 78.5161H254.735V81.1002H253.947V74.8462H255.672ZM255.628 75.5297H254.735V77.8504H255.672C256.18 77.8504 256.551 77.7498 256.784 77.5483C257.018 77.3468 257.135 77.0505 257.135 76.6595C257.135 76.3847 257.081 76.1661 256.973 76.0025C256.865 75.839 256.7 75.719 256.478 75.6432C256.256 75.5675 255.973 75.5297 255.628 75.5297Z" fill="#191919"/>
<path d="M267.478 77.9623C267.478 78.4467 267.417 78.8865 267.294 79.2802C267.172 79.6744 266.989 80.015 266.747 80.3008C266.505 80.5867 266.204 80.8063 265.845 80.9579C265.485 81.1095 265.07 81.1852 264.596 81.1852C264.106 81.1852 263.68 81.1085 263.318 80.9531C262.956 80.7986 262.655 80.58 262.416 80.296C262.176 80.013 261.998 79.6725 261.882 79.2759C261.765 78.8788 261.706 78.4381 261.706 77.9531C261.706 77.311 261.812 76.7504 262.022 76.2717C262.232 75.793 262.551 75.419 262.981 75.1504C263.41 74.8818 263.952 74.7476 264.606 74.7476C265.23 74.7476 265.756 74.8803 266.182 75.1461C266.609 75.4118 266.931 75.7854 267.15 76.2674C267.369 76.7489 267.478 77.3138 267.478 77.9623ZM262.539 77.9623C262.539 78.4879 262.611 78.9402 262.757 79.32C262.903 79.6994 263.129 79.991 263.436 80.1953C263.742 80.4006 264.129 80.5023 264.596 80.5023C265.07 80.5023 265.457 80.4006 265.757 80.1953C266.058 79.991 266.281 79.6994 266.427 79.32C266.573 78.9402 266.646 78.488 266.646 77.9623C266.646 77.1739 266.483 76.5561 266.156 76.1096C265.829 75.6632 265.312 75.4396 264.606 75.4396C264.132 75.4396 263.742 75.5403 263.436 75.7418C263.129 75.9433 262.903 76.2324 262.757 76.6088C262.611 76.9853 262.539 77.4366 262.539 77.9623Z" fill="#191919"/>
<path d="M278.579 74.8465L276.915 81.1004H276.118L274.9 77.0013C274.865 76.8785 274.83 76.7528 274.795 76.6243C274.759 76.4962 274.728 76.3734 274.698 76.2565C274.669 76.14 274.644 76.0392 274.624 75.9543C274.603 75.8699 274.591 75.807 274.585 75.7663C274.579 75.807 274.569 75.8698 274.554 75.9543C274.539 76.0392 274.518 76.1398 274.488 76.2565C274.459 76.3734 274.429 76.4976 274.396 76.6291C274.364 76.7605 274.328 76.8934 274.287 77.0277L273.104 81.1004H272.307L270.652 74.8465H271.475L272.448 78.6655C272.482 78.7997 272.514 78.9327 272.544 79.064C272.573 79.1954 272.6 79.324 272.627 79.4491C272.653 79.5747 272.675 79.696 272.693 79.8132C272.711 79.9302 272.728 80.0434 272.745 80.1546C272.763 80.0376 272.782 79.9178 272.802 79.7959C272.823 79.6732 272.847 79.5456 272.877 79.4141C272.905 79.2828 272.938 79.1504 272.973 79.0156C273.008 78.8814 273.044 78.7499 273.078 78.6214L274.182 74.8465H274.997L276.144 78.6477C276.185 78.7825 276.222 78.9182 276.258 79.0554C276.292 79.1925 276.325 79.3255 276.354 79.4534C276.384 79.5819 276.409 79.7057 276.429 79.8265C276.449 79.9454 276.468 80.0547 276.485 80.1545C276.503 80.0086 276.526 79.8552 276.555 79.6941C276.585 79.5339 276.619 79.3661 276.661 79.191C276.701 79.0155 276.745 78.8375 276.792 78.6566L277.755 74.8462L278.579 74.8465Z" fill="#191919"/>
<path d="M281.515 80.6243C281.515 80.4085 281.567 80.2559 281.673 80.1687C281.777 80.0804 281.903 80.0374 282.05 80.0374C282.201 80.0374 282.331 80.0806 282.439 80.1687C282.547 80.2559 282.601 80.4085 282.601 80.6243C282.601 80.8344 282.546 80.9859 282.439 81.0799C282.331 81.173 282.201 81.2199 282.05 81.2199C281.903 81.2199 281.777 81.1729 281.673 81.0799C281.567 80.9859 281.515 80.8344 281.515 80.6243Z" fill="#191919"/>
<path d="M286.491 80.6243C286.491 80.4085 286.543 80.2559 286.649 80.1687C286.753 80.0804 286.879 80.0374 287.026 80.0374C287.177 80.0374 287.307 80.0806 287.415 80.1687C287.523 80.2559 287.577 80.4085 287.577 80.6243C287.577 80.8344 287.523 80.9859 287.415 81.0799C287.307 81.173 287.177 81.2199 287.026 81.2199C286.879 81.2199 286.753 81.1729 286.649 81.0799C286.543 80.9859 286.491 80.8344 286.491 80.6243Z" fill="#191919"/>
<path d="M291.467 80.6243C291.467 80.4085 291.519 80.2559 291.625 80.1687C291.73 80.0804 291.855 80.0374 292.002 80.0374C292.153 80.0374 292.283 80.0806 292.391 80.1687C292.499 80.2559 292.553 80.4085 292.553 80.6243C292.553 80.8344 292.499 80.9859 292.391 81.0799C292.283 81.173 292.153 81.2199 292.002 81.2199C291.855 81.2199 291.73 81.1729 291.625 81.0799C291.519 80.9859 291.467 80.8344 291.467 80.6243Z" fill="#191919"/>
<path d="M296.439 80.6243C296.439 80.4085 296.492 80.2559 296.597 80.1687C296.702 80.0804 296.828 80.0374 296.974 80.0374C297.126 80.0374 297.255 80.0806 297.364 80.1687C297.471 80.2559 297.526 80.4085 297.526 80.6243C297.526 80.8344 297.471 80.9859 297.364 81.0799C297.255 81.173 297.126 81.2199 296.974 81.2199C296.828 81.2199 296.702 81.1729 296.597 81.0799C296.492 80.9859 296.439 80.8344 296.439 80.6243Z" fill="#191919"/>
<defs>
<linearGradient id="paint0_linear_109_89" x1="-2.15706" y1="0.927051" x2="58.505" y2="98.9195" gradientUnits="userSpaceOnUse">
<stop stop-color="#DCE35B"/>
<stop offset="1" stop-color="#FF5E62"/>
</linearGradient>
<linearGradient id="paint1_linear_109_89" x1="3.97135" y1="-2.86743" x2="64.6334" y2="95.125" gradientUnits="userSpaceOnUse">
<stop stop-color="#DCE35B"/>
<stop offset="1" stop-color="#FF5E62"/>
</linearGradient>
<linearGradient id="paint2_linear_109_89" x1="-19.4597" y1="11.6389" x2="41.2023" y2="109.631" gradientUnits="userSpaceOnUse">
<stop stop-color="#DCE35B"/>
<stop offset="1" stop-color="#FF5E62"/>
</linearGradient>
</defs>
</svg>
