<svg id="Flat" xmlns="http://www.w3.org/2000/svg" viewBox="0 0 512 512"><path d="M464,504a15.947,15.947,0,0,1-11.314-4.687l-168-168a16,16,0,0,1,22.627-22.626l168,168A16,16,0,0,1,464,504Z" style="fill:#d13330"/><path d="M272,232V200H248a100.344,100.344,0,0,0-16-40l24-24-24-24-24,24a100.344,100.344,0,0,0-40-16V88H136v32a100.344,100.344,0,0,0-40,16L72,112,48,136l24,24a100.344,100.344,0,0,0-16,40H32v32H56a100.344,100.344,0,0,0,16,40L48,296l24,24,24-24a100.344,100.344,0,0,0,40,16v32h32V312a100.344,100.344,0,0,0,40-16l24,24,24-24-24-24a100.344,100.344,0,0,0,16-40ZM152,264a48,48,0,1,1,48-48A48,48,0,0,1,152,264Z" style="fill:#7e8589"/><path d="M303.994,72a7.973,7.973,0,0,1-3.572-.847l-16-8a8,8,0,0,1,7.156-14.31l16,8A8,8,0,0,1,303.994,72Z" style="fill:#ffd33a"/><rect x="344" y="176" width="48" height="32" style="fill:#c3c6c7"/><path d="M416,112c0,.43-24,64-24,64H344l-24-64c0-30.93,17.07-48,48-48S416,81.07,416,112Z" style="fill:#ffd33a"/><path d="M368,40a8,8,0,0,1-8-8V16a8,8,0,0,1,16,0V32A8,8,0,0,1,368,40Z" style="fill:#ffd33a"/><path d="M328.006,48a8,8,0,0,1-7.161-4.424l-8-16a8,8,0,0,1,14.31-7.156l8,16A8,8,0,0,1,328.006,48Z" style="fill:#ffd33a"/><path d="M407.994,48a8,8,0,0,1-7.149-11.58l8-16a8,8,0,1,1,14.31,7.156l-8,16A8,8,0,0,1,407.994,48Z" style="fill:#ffd33a"/><path d="M432.006,72a8,8,0,0,1-3.584-15.157l16-8a8,8,0,1,1,7.156,14.31l-16,8A7.973,7.973,0,0,1,432.006,72Z" style="fill:#ffd33a"/><circle cx="296" cy="319.999" r="120" style="fill:#eb423f"/><circle cx="296" cy="319.999" r="88" style="fill:#e9eef2"/><path d="M296,384a64.072,64.072,0,0,1-64-64,8,8,0,0,1,16,0,48.053,48.053,0,0,0,48,48,8,8,0,0,1,0,16Z" style="fill:#d0d2d4"/></svg>